<?xml version="1.0" encoding="UTF-8" standalone="no"?>
<svg
   xmlns:dc="http://purl.org/dc/elements/1.1/"
   xmlns:cc="http://creativecommons.org/ns#"
   xmlns:rdf="http://www.w3.org/1999/02/22-rdf-syntax-ns#"
   xmlns:svg="http://www.w3.org/2000/svg"
   xmlns="http://www.w3.org/2000/svg"
   xmlns:sodipodi="http://sodipodi.sourceforge.net/DTD/sodipodi-0.dtd"
   xmlns:inkscape="http://www.inkscape.org/namespaces/inkscape"
   version="1.0"
   x="0px"
   y="0px"
   width="1152px"
   height="1152px"
   xml:space="preserve"
   id="svg2"
   inkscape:version="0.48.2 r9819"
   sodipodi:docname="SVGAttic.6.17.2011_Rose.svg"><metadata
   id="metadata22"><rdf:RDF><cc:Work
       rdf:about=""><dc:format>image/svg+xml</dc:format><dc:type
         rdf:resource="http://purl.org/dc/dcmitype/StillImage" /><dc:title></dc:title></cc:Work></rdf:RDF></metadata><defs
   id="defs20">

</defs><sodipodi:namedview
   pagecolor="#ffffff"
   bordercolor="#666666"
   borderopacity="1"
   objecttolerance="10"
   gridtolerance="10"
   guidetolerance="10"
   inkscape:pageopacity="0"
   inkscape:pageshadow="2"
   inkscape:window-width="1280"
   inkscape:window-height="745"
   id="namedview18"
   showgrid="false"
   inkscape:zoom="1.1588694"
   inkscape:cx="873.84095"
   inkscape:cy="888.52463"
   inkscape:window-x="0"
   inkscape:window-y="26"
   inkscape:window-maximized="1"
   inkscape:current-layer="svg2" />
<g
   id="pl_&lt;text&gt;">
</g>
<g
   id="Layer 15">
<g
   id="Layer 16">
</g>
</g>

<path
   inkscape:connector-curvature="0"
   id="path12"
   d="m 197.68348,71.481009 c -5.436,0.0973 -10.817,1.3178 -15.864,3.3069 -5.472,2.1936 -10.511,5.3827 -14.988,9.2063 -3.311,2.8815 -6.57,5.8404 -9.579,9.0401 -2.914,3.2289 -5.419,7.052401 -6.133,11.414601 -0.2,0.5333 -1.152,0.2932 -1.654,0.5154 -4.814,0.82 -9.565,2.1077 -14.029,4.1063 -3.038,1.3104 -5.936,2.9483 -8.568,4.9557 -2.7083,2.0314 -5.1981,4.3458 -7.4259,6.8948 -2.4348,2.759 -4.5294,5.803 -6.3607,8.991 -1.5982,2.977 -3.0332,6.05 -4.0506,9.277 -1.3518,4.361 -2.2602,8.877 -2.5401,13.439 -0.5245,8.364 0.8012,16.833 3.8345,24.644 2.0786,5.401 4.9796,10.508 8.6728,14.968 3.7329,4.295 8.105,7.987 12.633,11.414 1.022,0.78 2.093,1.489 3.176,2.181 -1.198,3.541 -0.883,7.427 0.349,10.914 1.732,5.924 5.035,11.269 8.929,16.013 3.981,4.764 8.622,8.937 13.467,12.801 2.498,1.884 5.173,3.527 7.994,4.883 4.204,2.087 8.829,3.19 13.477,3.7 1.377,0.201 2.753,0.421 4.131,0.61 -0.449,2.889 -0.989,5.761 -1.686,8.601 -1.681,7.086 -3.841,14.049 -6.136,20.957 -3.159,9.309 -6.648,18.504 -10.447,27.571 -3.072,7.23 -6.294,14.4 -9.814,21.424 -2.506,5.014 -5.1,9.989 -7.937,14.824 -0.963,1.458 -1.68,3.115 -2.913,4.369 -0.879,-0.314 -1.271,-1.307 -1.769,-2.032 -1.057,-1.953 -2.018,-4.01 -2.436,-6.203 -0.345,-2.487 0.881,-4.826 2.255,-6.802 3.116,-4.625 7.408,-8.337 10.343,-13.097 1.186,-1.89 2.382,-3.865 2.88,-6.057 0.232,-1.639 -0.127,-3.314 -0.566,-4.892 -1.15,-3.805 -3.464,-7.138 -5.999,-10.152 -5.344,-6.21 -11.845,-11.287 -18.464,-16.06 -7.0143,-4.96 -14.3881,-9.381 -21.4487,-14.273 -3.673,-2.474 -7.2923,-5.031 -10.842301,-7.678 -2.6716,-2.004 -5.1041,-4.595 -8.415,-5.508 -0.7988,-0.279 -1.9003,-0.041 -2.0486,0.92 -0.8192,3.326 -0.9339,6.779 -1.1682,10.186 -0.4155,7.317 -0.4318,14.648 -0.4759,21.975 0.0098,6.637 0.031,13.28 0.5043,19.903 0.3567,5.64 1.456,11.266 3.6745,16.481 1.4042,3.559 3.0262,7.034 4.8141,10.415 1.6082,2.938 3.4053,5.779 5.526501,8.376 3.002,3.686 6.953,6.959 11.7381,7.86 4.6517,0.901 9.3894,-0.823 13.1922,-3.447 3.066,-2.171 5.788,-4.783 8.66,-7.199 0.426,-0.295 1.109,-1.301 1.035,-0.205 0.63,3.988 1.421,7.954 1.921,11.96 0.419,3.751 -0.96,7.431 -2.897,10.581 -2.857,4.994 -6.421,9.529 -9.699,14.245 -7.0861,9.51 -14.7172,18.606 -22.6235,27.442 -4.339201,4.748 -8.658401,9.529 -12.509401,14.689 -2.3832,3.168 -4.6401,6.44 -6.6329,9.869 -1.9022,3.231 -3.5249,6.62 -4.9051,10.106 -1.4803,4.125 -3.0308,8.26 -3.8746,12.573 -0.0664,0.577 -0.2596,1.229 0.0114,1.768 1.5326,-0.605 2.7255,-1.87 3.9536,-2.948 3.7748,-3.618 7.2638,-7.52 10.7257,-11.435 8.4452,-9.671 16.526301,-19.655 24.486101,-29.727 9.6976,-12.293 19.1457,-24.787 28.1897,-37.569 3.775,-5.437 7.546,-10.886 10.919,-16.585 3.891,-6.442 8.237,-12.637 13.276,-18.236 2.929,-3.259 6.48,-5.858 9.772,-8.726 0.592,-0.499 1.185,-0.998 1.777,-1.497 0.869,3.975 1.529,8 2.581,11.932 1.295,4.334 3.773,8.565 7.793,10.866 4.23,2.474 9.378,2.653 14.107,1.894 3.289,-0.527 6.508,-1.419 9.642,-2.541 3.352,-1.193 6.625,-2.61 9.813,-4.188 4.366,-2.323 8.299,-5.357 12.207,-8.366 8.276,-6.529 16.193,-13.524 23.628,-20.999 2.281,-2.396 4.639,-4.763 6.5,-7.509 0.396,-0.66 1.02,-1.38 0.922,-2.171 -0.639,-0.757 -1.721,-0.953 -2.573,-1.414 -6.288,-2.324 -12.79,-4.004 -19.273,-5.682 -8.633,-2.191 -17.326,-4.152 -26.06,-5.894 -4.715,-0.882 -9.453,-1.686 -14.242,-2.032 -3.599,-0.193 -7.31,-0.161 -10.726,1.135 -4.793,1.647 -8.689,5.466 -10.698,10.088 -1.843,3.992 -2.36,8.437 -2.391,12.792 -0.096,2.71 -0.581,5.644 -2.465,7.717 -1.114,1.159 -2.765,1.494 -4.252,1.926 -0.933,0.271 -2.434,0.197 -2.571,-1.022 -0.192,-1.858 0.813,-3.565 1.441,-5.254 1.555,-3.08 2.961,-6.233 4.11,-9.488 2.61,-7.023 4.85,-14.176 7.151,-21.304 3.777,-12.288 7.508,-24.589 11.254,-36.887 5.08,-0.149 10.065,-1.27 14.961,-2.553 7.505,-2.12 14.54,-5.993 20.234,-11.336 3.826,-3.642 6.989,-8.015 9.024,-12.902 0.694,-1.652 1.346,-3.381 1.357,-5.196 7.556,-1.155 14.855,-3.89 21.349,-7.915 4.308,-2.625 8.28,-5.8 11.782,-9.432 2.311,-2.362 4.441,-4.901 6.281,-7.649 4.856,-7.019 8.198,-15.115 9.527,-23.554 0.69,-4.761 0.841,-9.615 0.233,-14.394 -0.76,-6.787 -2.97,-13.415 -6.452,-19.292 -2.356,-4.13 -5.555,-7.697 -8.997,-10.95 -2.856,-2.788 -5.895,-5.392 -9.181,-7.664 -2.521,-1.773 -5.176,-3.367 -7.95,-4.7116 -1.573,-0.7159 -3.296,-1.1015 -5.027,-1.0743 -0.284,-0.9505 -0.054,-1.9741 -0.22,-2.9546 -0.432,-8.343 -3.939,-16.330701 -9.122,-22.810201 -2.236,-2.8489 -4.875,-5.3647 -7.677,-7.6488 -2.134,-1.6261 -4.33,-3.1905 -6.706,-4.4466 -3.56,-1.9528 -7.294,-3.6254 -11.189,-4.7893 -2.561,-0.7732 -5.175,-1.3888 -7.823,-1.7668 -3.216,-0.5077 -6.467,-0.6919 -9.72,-0.6019"
   style="fill:#dd00dd" />
<g
   id="g14">
<path
   style="fill:rgb(221,0,221);"
   d="M 387.742 57.665 C 380.368 58.3547 373.207 60.8747 366.926 64.7826 C 363.234 67.0297 359.887 69.7908 356.719 72.7196 C 353.145 76.0186 349.439 79.3003 346.811 83.4406 C 345.414 85.6611 344.354 88.126 343.983 90.7358 C 339.429 91.4702 334.887 92.4447 330.599 94.1804 C 326.621 95.7217 322.779 97.6906 319.414 100.336 C 312.028 105.964 306.383 113.753 302.952 122.357 C 301.258 126.692 300.209 131.259 299.633 135.872 C 299.316 138.945 299.179 142.047 299.354 145.134 C 299.527 148.552 300.003 151.95 300.754 155.288 C 302.088 160.988 304.215 166.514 307.192 171.561 C 308.855 174.348 310.708 177.047 312.896 179.448 C 316.349 183.129 320.181 186.446 324.214 189.475 C 325.36 190.312 326.504 191.154 327.718 191.891 C 326.63 195.098 326.73 198.627 327.768 201.833 C 329.728 209.182 334.032 215.687 339.114 221.257 C 342.495 224.937 346.254 228.253 350.139 231.388 C 353.803 234.202 357.852 236.536 362.213 238.084 C 365.187 239.141 368.292 239.803 371.43 240.128 C 377.524 241.229 383.774 241.594 389.935 240.879 C 393.367 240.485 396.736 239.677 400.087 238.861 C 407.141 236.973 413.805 233.576 419.382 228.851 C 423.244 225.516 426.604 221.533 428.933 216.978 C 429.9 215.047 430.81 213.056 431.31 210.949 C 431.405 210.366 431.508 209.784 431.486 209.191 C 439.245 208.033 446.722 205.162 453.346 200.974 C 456.525 199.023 459.452 196.698 462.234 194.22 C 464.179 192.373 466.038 190.443 467.771 188.395 C 470.38 185.184 472.703 181.738 474.627 178.072 C 477.712 172.112 479.863 165.637 480.669 158.964 C 481.152 154.599 481.232 150.172 480.622 145.816 C 479.741 138.499 477.151 131.395 473.146 125.211 C 469.984 120.305 465.659 116.316 461.357 112.431 C 457.423 109.106 453.158 106.144 448.551 103.83 C 446.838 103.026 444.951 102.457 443.051 102.556 C 442.735 101.963 443.025 101.181 442.89 100.514 C 442.708 94.1447 440.745 87.8894 437.549 82.3977 C 435.025 78.0239 431.76 74.0854 427.965 70.7548 C 425.966 68.9744 423.791 67.4073 421.552 65.9424 C 417.65 63.6193 413.534 61.6418 409.216 60.2202 C 404.128 58.5586 398.795 57.6288 393.442 57.5217 C 391.54 57.501 389.641 57.5238 387.742 57.665 "
   id="path16" />
</g>

<g
   id="g3008"
   inkscape:export-filename="/home/leandro/projects/svn/professionalit/customers/rosamarialimpeza/logo01a.png"
   inkscape:export-xdpi="90"
   inkscape:export-ydpi="90"><g
     transform="translate(-6,2)"
     id="g2999"
     style="fill:#e6e6e6;stroke:#f9f9f9">
<g
   id="g3001"
   style="fill:#e6e6e6;stroke:#f9f9f9">
<path
   inkscape:connector-curvature="0"
   style="fill:#e6e6e6;stroke:#f9f9f9"
   d="m 596.334,66.0571 c -5.435,0.0974 -10.816,1.3178 -15.864,3.307 -5.471,2.1935 -10.511,5.3826 -14.987,9.2063 -3.311,2.8814 -6.571,5.8404 -9.579,9.0401 -2.915,3.2289 -5.419,7.0523 -6.134,11.4146 -0.199,0.5333 -1.151,0.2931 -1.653,0.5154 -4.815,0.8195 -9.565,2.1075 -14.03,4.1065 -3.037,1.31 -5.935,2.948 -8.568,4.955 -2.708,2.032 -5.198,4.346 -7.425,6.896 -2.435,2.758 -4.53,5.802 -6.361,8.991 -1.598,2.976 -3.033,6.049 -4.051,9.276 -1.351,4.362 -2.26,8.877 -2.54,13.439 -0.524,8.364 0.801,16.833 3.835,24.644 2.078,5.401 4.979,10.508 8.673,14.969 3.732,4.295 8.104,7.987 12.633,11.413 1.022,0.78 2.093,1.489 3.175,2.181 -1.198,3.541 -0.883,7.428 0.35,10.914 1.731,5.925 5.035,11.27 8.928,16.013 3.981,4.764 8.623,8.938 13.467,12.801 2.499,1.885 5.173,3.527 7.994,4.883 4.205,2.087 8.829,3.19 13.477,3.7 4.32,0.736 8.7,1.144 13.084,1.012 4.737,-0.073 9.411,-0.956 13.992,-2.11 6.773,-1.608 13.2,-4.684 18.713,-8.933 5.335,-4.091 9.753,-9.471 12.364,-15.692 0.717,-1.678 1.386,-3.439 1.4,-5.288 7.556,-1.155 14.854,-3.89 21.348,-7.915 4.308,-2.625 8.281,-5.8 11.782,-9.432 2.311,-2.362 4.441,-4.901 6.282,-7.649 4.855,-7.019 8.197,-15.115 9.527,-23.554 0.689,-4.761 0.84,-9.615 0.232,-14.394 -0.76,-6.787 -2.97,-13.415 -6.452,-19.291 -2.356,-4.131 -5.554,-7.698 -8.997,-10.95 -2.855,-2.789 -5.895,-5.393 -9.18,-7.665 -2.522,-1.773 -5.177,-3.367 -7.95,-4.711 -1.573,-0.716 -3.297,-1.102 -5.027,-1.075 -0.284,-0.95 -0.054,-1.974 -0.221,-2.954 -0.432,-8.3433 -3.938,-16.331 -9.122,-22.8105 -2.235,-2.8488 -4.874,-5.3647 -7.676,-7.6487 -2.135,-1.6262 -4.33,-3.1905 -6.706,-4.4466 -3.561,-1.9529 -7.295,-3.6255 -11.189,-4.7893 -2.561,-0.7733 -5.175,-1.3888 -7.823,-1.7668 -3.216,-0.5077 -6.467,-0.6919 -9.721,-0.602 m 3.457,7.8057 c 7.194,0.1943 14.331,2.1205 20.669,5.5239 6.473,3.4529 12.206,8.4807 15.976,14.8157 2.413,4.0602 3.97,8.6676 4.291,13.3896 0.254,3.997 -0.263,8.034 -1.353,11.881 -0.384,1.066 -0.729,2.346 -1.75,2.963 -1.022,0.321 -1.846,-0.668 -2.596,-1.213 -3.286,-3.082 -5.661,-6.949 -8.148,-10.663 -3.989,-5.461 -9.147,-10.013 -14.86,-13.6018 -4.499,-2.7669 -9.406,-5.0243 -14.634,-5.9508 -3.263,-0.6439 -6.618,-0.3137 -9.841,0.3977 -6.025,1.2908 -11.924,3.1968 -17.558,5.6938 -2.802,1.0899 -5.642,2.1109 -8.552,2.8741 -0.867,0.173 -1.762,0.451 -2.648,0.27 -0.647,-1.0227 0.098,-2.2277 0.579,-3.1621 1.913,-3.195 4.566,-5.8697 7.227,-8.4459 4.259,-3.9884 8.836,-7.7176 13.977,-10.513 4.607,-2.4208 9.752,-3.7404 14.927,-4.1457 1.429,-0.1398 2.86,-0.1168 4.294,-0.1135 M 563.63,105.675 c 0.8,0.132 1.956,0.042 2.37,0.866 0.059,1.07 -0.879,1.886 -1.535,2.634 -3.95,4.085 -8.421,7.616 -12.477,11.59 -3.55,3.47 -6.934,7.143 -9.729,11.259 -3.769,5.447 -6.471,11.74 -7.114,18.372 -0.752,7.444 0.925,14.93 3.665,21.823 1.115,2.879 2.441,5.665 3.792,8.439 2.232,4.725 4.612,9.427 6.022,14.48 0.063,0.655 0.525,1.757 -0.418,1.971 -1.73,0.234 -3.374,-0.652 -4.906,-1.354 -4.595,-2.301 -8.733,-5.411 -12.683,-8.674 -3.41,-2.936 -6.76,-6.083 -9.054,-9.999 -5.497,-8.856 -8.393,-19.4 -7.718,-29.834 0.553,-9.573 4.196,-18.997 10.498,-26.256 3.557,-4.167 7.943,-7.624 12.796,-10.156 3.33,-1.08 6.638,-2.257 9.982,-3.278 4.767,-0.662 9.532,-1.376 14.301,-2.005 0.736,0.041 1.472,0.081 2.208,0.122 m 33.182,8.108 c 4.344,0.416 8.719,0.941 12.856,2.401 4.838,1.644 9.317,4.443 12.697,8.299 3.089,3.468 5.192,7.692 6.666,12.071 0.778,2.319 1.526,4.738 1.431,7.208 0.044,1.252 -0.611,2.812 -2.041,2.873 -1.743,0.083 -3.352,-0.843 -4.788,-1.74 -4.438,-2.835 -7.96,-6.808 -11.675,-10.485 -3.33,-3.2 -7.082,-6.195 -11.555,-7.579 -3.205,-1 -6.636,-1.013 -9.92,-0.422 -4.717,0.811 -9.13,2.726 -13.571,4.431 -1.695,0.56 -3.462,1.28 -5.273,1.084 -0.765,0.007 -0.944,-0.849 -0.662,-1.422 1.103,-2.359 3.118,-4.123 4.903,-5.966 3.331,-2.963 6.499,-6.155 10.211,-8.65 2.281,-1.484 4.979,-2.263 7.7,-2.224 1.007,0.015 2.014,0.085 3.021,0.121 m 53.812,5.178 c 3.751,1.576 6.925,4.197 10.14,6.635 4.036,3.335 8.072,6.81 10.983,11.213 1.685,2.366 3.069,4.945 4.196,7.619 1.247,2.968 2.11,6.096 2.622,9.272 0.748,4.733 0.65,9.585 -0.18,14.301 -0.94,5.251 -2.77,10.334 -5.32,15.017 -2.585,4.692 -5.859,9.009 -9.748,12.698 -3.429,3.271 -7.306,6.082 -11.516,8.262 -3.604,1.896 -7.451,3.303 -11.411,4.242 -3.443,0.797 -6.971,1.206 -10.505,1.252 -1.742,-0.014 -3.631,0.116 -5.211,-0.724 -0.94,-0.511 -0.551,-1.744 -0.014,-2.417 1.754,-2.412 4.267,-4.118 6.537,-6.005 4.523,-3.356 9.083,-6.715 12.999,-10.787 4.757,-4.788 8.844,-10.277 11.884,-16.31 2.732,-5.408 4.483,-11.34 4.845,-17.401 0.529,-4.707 -0.242,-9.477 -1.822,-13.921 -1.066,-3.106 -2.368,-6.129 -3.713,-9.123 -1.953,-4.332 -4.113,-8.567 -6.175,-12.847 -0.309,-0.47 -0.191,-1.339 0.533,-1.199 0.292,0.074 0.584,0.148 0.876,0.223 m -52.952,21.999 c 4.088,0.295 8.192,1.491 11.529,3.927 1.957,1.478 3.753,3.298 4.843,5.518 0.567,1.109 0.738,2.705 -0.41,3.511 -1.721,1.002 -3.841,0.478 -5.64,-0.055 -3.39,-1.021 -6.195,-3.478 -9.729,-4.098 -3.429,-0.798 -7.431,-0.184 -9.927,2.464 -1.074,1.122 -1.938,2.508 -2.295,4.026 -0.008,1.295 1.455,1.835 2.498,2.143 3.231,0.793 6.692,0.584 9.863,-0.382 1.374,-0.489 2.807,-1.286 3.309,-2.746 0.308,-0.758 0.996,-1.634 1.917,-1.245 1.486,0.79 2.729,2.007 3.775,3.313 0.72,1.032 0.572,2.397 -0.112,3.404 -1.394,2.217 -3.367,4.173 -5.9,5.007 -4.02,1.409 -8.525,0.594 -12.24,-1.317 -2.904,-1.486 -5.347,-3.731 -7.347,-6.288 -1.224,-1.591 -2.865,-3.302 -2.646,-5.468 0.3,-2.02 1.621,-3.681 2.646,-5.39 1.314,-1.922 3.186,-3.406 5.279,-4.405 3.273,-1.575 6.983,-2.079 10.587,-1.919 m -33.23,0.303 c 0.881,0.087 2.039,0.385 2.131,1.447 0.083,1.97 -0.817,3.819 -1.415,5.659 -1.393,3.97 -1.843,8.199 -2.178,12.372 -0.213,3.545 -0.243,7.156 0.564,10.634 0.874,3.512 3.062,6.495 5.439,9.148 3.303,3.781 7.169,7.058 10.259,11.026 0.508,0.703 1.222,1.943 0.268,2.583 -1.228,0.739 -2.725,0.876 -4.122,1.079 -4.522,0.427 -9.035,-0.939 -13.03,-2.982 -5.506,-2.871 -10.282,-7.297 -13.16,-12.837 -2.235,-4.112 -3.84,-8.7 -3.796,-13.428 -0.024,-3.858 1.072,-7.656 2.816,-11.078 1.829,-3.539 4.197,-6.795 6.883,-9.73 1.986,-1.936 4.524,-3.443 7.288,-3.874 0.683,-0.106 1.367,-0.037 2.053,-0.019 m 69.997,14.114 c 2.418,0.478 3.869,2.803 4.667,4.957 1.36,4.027 1.355,8.482 0.081,12.532 -1.776,5.728 -5.852,10.497 -10.675,13.945 -7.388,5.221 -16.704,7.697 -25.706,6.698 -5.98,-0.67 -11.775,-2.951 -16.603,-6.544 -1.208,-1.002 -2.574,-2.032 -3.107,-3.567 -0.209,-0.97 0.951,-1.266 1.691,-1.159 2.355,0.152 4.53,1.303 6.907,1.348 3.707,0.277 7.398,-0.481 10.943,-1.499 3.634,-1.14 7.143,-2.673 10.446,-4.569 2.789,-1.601 5.45,-3.42 7.905,-5.5 3.496,-3.075 6.824,-6.655 8.333,-11.152 0.538,-1.892 1.156,-4.013 2.951,-5.092 0.673,-0.359 1.41,-0.49 2.167,-0.398 m -88.874,44.237 c 2.802,0.487 5,2.482 6.978,4.387 2.343,2.47 4.938,4.697 7.81,6.531 6.06,4.045 12.744,7.122 19.67,9.354 4.437,1.339 9.052,2.489 13.722,2.166 5.264,-0.388 10.44,-1.525 15.517,-2.934 5.125,-1.364 9.987,-3.693 15.249,-4.529 1.463,-0.095 3.246,-0.383 4.384,0.764 0.926,1.234 0.307,2.866 -0.182,4.153 -2.566,5.553 -6.878,10.208 -11.93,13.604 -2.424,1.629 -5.007,3.021 -7.73,4.081 -4.604,1.854 -9.524,2.754 -14.42,3.447 -2.146,0.368 -4.322,0.46 -6.491,0.288 -5.163,-0.333 -10.302,-1.089 -15.354,-2.197 -2.753,-0.52 -5.157,-2.047 -7.552,-3.422 -3.89,-2.39 -7.41,-5.339 -10.672,-8.522 -4.203,-4.151 -8.015,-8.794 -10.678,-14.093 -1.661,-3.195 -2.836,-6.927 -1.969,-10.529 0.384,-1.496 1.779,-2.813 3.402,-2.561 0.082,0.004 0.164,0.008 0.246,0.012"
   id="path3003" />
</g>
</g><g
     style="fill:#ffaaaa"
     id="Layer_18_(1)">
<g
   style="fill:#ffaaaa"
   id="Layer_18_(1)_(1)">
<path
   id="path9"
   d="m 596.334,66.0571 c -5.435,0.0974 -10.816,1.3178 -15.864,3.307 -5.471,2.1935 -10.511,5.3826 -14.987,9.2063 -3.311,2.8814 -6.571,5.8404 -9.579,9.0401 -2.915,3.2289 -5.419,7.0523 -6.134,11.4146 -0.199,0.5333 -1.151,0.2931 -1.653,0.5154 -4.815,0.8195 -9.565,2.1075 -14.03,4.1065 -3.037,1.31 -5.935,2.948 -8.568,4.955 -2.708,2.032 -5.198,4.346 -7.425,6.896 -2.435,2.758 -4.53,5.802 -6.361,8.991 -1.598,2.976 -3.033,6.049 -4.051,9.276 -1.351,4.362 -2.26,8.877 -2.54,13.439 -0.524,8.364 0.801,16.833 3.835,24.644 2.078,5.401 4.979,10.508 8.673,14.969 3.732,4.295 8.104,7.987 12.633,11.413 1.022,0.78 2.093,1.489 3.175,2.181 -1.198,3.541 -0.883,7.428 0.35,10.914 1.731,5.925 5.035,11.27 8.928,16.013 3.981,4.764 8.623,8.938 13.467,12.801 2.499,1.885 5.173,3.527 7.994,4.883 4.205,2.087 8.829,3.19 13.477,3.7 4.32,0.736 8.7,1.144 13.084,1.012 4.737,-0.073 9.411,-0.956 13.992,-2.11 6.773,-1.608 13.2,-4.684 18.713,-8.933 5.335,-4.091 9.753,-9.471 12.364,-15.692 0.717,-1.678 1.386,-3.439 1.4,-5.288 7.556,-1.155 14.854,-3.89 21.348,-7.915 4.308,-2.625 8.281,-5.8 11.782,-9.432 2.311,-2.362 4.441,-4.901 6.282,-7.649 4.855,-7.019 8.197,-15.115 9.527,-23.554 0.689,-4.761 0.84,-9.615 0.232,-14.394 -0.76,-6.787 -2.97,-13.415 -6.452,-19.291 -2.356,-4.131 -5.554,-7.698 -8.997,-10.95 -2.855,-2.789 -5.895,-5.393 -9.18,-7.665 -2.522,-1.773 -5.177,-3.367 -7.95,-4.711 -1.573,-0.716 -3.297,-1.102 -5.027,-1.075 -0.284,-0.95 -0.054,-1.974 -0.221,-2.954 -0.432,-8.3433 -3.938,-16.331 -9.122,-22.8105 -2.235,-2.8488 -4.874,-5.3647 -7.676,-7.6487 -2.135,-1.6262 -4.33,-3.1905 -6.706,-4.4466 -3.561,-1.9529 -7.295,-3.6255 -11.189,-4.7893 -2.561,-0.7733 -5.175,-1.3888 -7.823,-1.7668 -3.216,-0.5077 -6.467,-0.6919 -9.721,-0.602 m 3.457,7.8057 c 7.194,0.1943 14.331,2.1205 20.669,5.5239 6.473,3.4529 12.206,8.4807 15.976,14.8157 2.413,4.0602 3.97,8.6676 4.291,13.3896 0.254,3.997 -0.263,8.034 -1.353,11.881 -0.384,1.066 -0.729,2.346 -1.75,2.963 -1.022,0.321 -1.846,-0.668 -2.596,-1.213 -3.286,-3.082 -5.661,-6.949 -8.148,-10.663 -3.989,-5.461 -9.147,-10.013 -14.86,-13.6018 -4.499,-2.7669 -9.406,-5.0243 -14.634,-5.9508 -3.263,-0.6439 -6.618,-0.3137 -9.841,0.3977 -6.025,1.2908 -11.924,3.1968 -17.558,5.6938 -2.802,1.0899 -5.642,2.1109 -8.552,2.8741 -0.867,0.173 -1.762,0.451 -2.648,0.27 -0.647,-1.0227 0.098,-2.2277 0.579,-3.1621 1.913,-3.195 4.566,-5.8697 7.227,-8.4459 4.259,-3.9884 8.836,-7.7176 13.977,-10.513 4.607,-2.4208 9.752,-3.7404 14.927,-4.1457 1.429,-0.1398 2.86,-0.1168 4.294,-0.1135 M 563.63,105.675 c 0.8,0.132 1.956,0.042 2.37,0.866 0.059,1.07 -0.879,1.886 -1.535,2.634 -3.95,4.085 -8.421,7.616 -12.477,11.59 -3.55,3.47 -6.934,7.143 -9.729,11.259 -3.769,5.447 -6.471,11.74 -7.114,18.372 -0.752,7.444 0.925,14.93 3.665,21.823 1.115,2.879 2.441,5.665 3.792,8.439 2.232,4.725 4.612,9.427 6.022,14.48 0.063,0.655 0.525,1.757 -0.418,1.971 -1.73,0.234 -3.374,-0.652 -4.906,-1.354 -4.595,-2.301 -8.733,-5.411 -12.683,-8.674 -3.41,-2.936 -6.76,-6.083 -9.054,-9.999 -5.497,-8.856 -8.393,-19.4 -7.718,-29.834 0.553,-9.573 4.196,-18.997 10.498,-26.256 3.557,-4.167 7.943,-7.624 12.796,-10.156 3.33,-1.08 6.638,-2.257 9.982,-3.278 4.767,-0.662 9.532,-1.376 14.301,-2.005 0.736,0.041 1.472,0.081 2.208,0.122 m 33.182,8.108 c 4.344,0.416 8.719,0.941 12.856,2.401 4.838,1.644 9.317,4.443 12.697,8.299 3.089,3.468 5.192,7.692 6.666,12.071 0.778,2.319 1.526,4.738 1.431,7.208 0.044,1.252 -0.611,2.812 -2.041,2.873 -1.743,0.083 -3.352,-0.843 -4.788,-1.74 -4.438,-2.835 -7.96,-6.808 -11.675,-10.485 -3.33,-3.2 -7.082,-6.195 -11.555,-7.579 -3.205,-1 -6.636,-1.013 -9.92,-0.422 -4.717,0.811 -9.13,2.726 -13.571,4.431 -1.695,0.56 -3.462,1.28 -5.273,1.084 -0.765,0.007 -0.944,-0.849 -0.662,-1.422 1.103,-2.359 3.118,-4.123 4.903,-5.966 3.331,-2.963 6.499,-6.155 10.211,-8.65 2.281,-1.484 4.979,-2.263 7.7,-2.224 1.007,0.015 2.014,0.085 3.021,0.121 m 53.812,5.178 c 3.751,1.576 6.925,4.197 10.14,6.635 4.036,3.335 8.072,6.81 10.983,11.213 1.685,2.366 3.069,4.945 4.196,7.619 1.247,2.968 2.11,6.096 2.622,9.272 0.748,4.733 0.65,9.585 -0.18,14.301 -0.94,5.251 -2.77,10.334 -5.32,15.017 -2.585,4.692 -5.859,9.009 -9.748,12.698 -3.429,3.271 -7.306,6.082 -11.516,8.262 -3.604,1.896 -7.451,3.303 -11.411,4.242 -3.443,0.797 -6.971,1.206 -10.505,1.252 -1.742,-0.014 -3.631,0.116 -5.211,-0.724 -0.94,-0.511 -0.551,-1.744 -0.014,-2.417 1.754,-2.412 4.267,-4.118 6.537,-6.005 4.523,-3.356 9.083,-6.715 12.999,-10.787 4.757,-4.788 8.844,-10.277 11.884,-16.31 2.732,-5.408 4.483,-11.34 4.845,-17.401 0.529,-4.707 -0.242,-9.477 -1.822,-13.921 -1.066,-3.106 -2.368,-6.129 -3.713,-9.123 -1.953,-4.332 -4.113,-8.567 -6.175,-12.847 -0.309,-0.47 -0.191,-1.339 0.533,-1.199 0.292,0.074 0.584,0.148 0.876,0.223 m -52.952,21.999 c 4.088,0.295 8.192,1.491 11.529,3.927 1.957,1.478 3.753,3.298 4.843,5.518 0.567,1.109 0.738,2.705 -0.41,3.511 -1.721,1.002 -3.841,0.478 -5.64,-0.055 -3.39,-1.021 -6.195,-3.478 -9.729,-4.098 -3.429,-0.798 -7.431,-0.184 -9.927,2.464 -1.074,1.122 -1.938,2.508 -2.295,4.026 -0.008,1.295 1.455,1.835 2.498,2.143 3.231,0.793 6.692,0.584 9.863,-0.382 1.374,-0.489 2.807,-1.286 3.309,-2.746 0.308,-0.758 0.996,-1.634 1.917,-1.245 1.486,0.79 2.729,2.007 3.775,3.313 0.72,1.032 0.572,2.397 -0.112,3.404 -1.394,2.217 -3.367,4.173 -5.9,5.007 -4.02,1.409 -8.525,0.594 -12.24,-1.317 -2.904,-1.486 -5.347,-3.731 -7.347,-6.288 -1.224,-1.591 -2.865,-3.302 -2.646,-5.468 0.3,-2.02 1.621,-3.681 2.646,-5.39 1.314,-1.922 3.186,-3.406 5.279,-4.405 3.273,-1.575 6.983,-2.079 10.587,-1.919 m -33.23,0.303 c 0.881,0.087 2.039,0.385 2.131,1.447 0.083,1.97 -0.817,3.819 -1.415,5.659 -1.393,3.97 -1.843,8.199 -2.178,12.372 -0.213,3.545 -0.243,7.156 0.564,10.634 0.874,3.512 3.062,6.495 5.439,9.148 3.303,3.781 7.169,7.058 10.259,11.026 0.508,0.703 1.222,1.943 0.268,2.583 -1.228,0.739 -2.725,0.876 -4.122,1.079 -4.522,0.427 -9.035,-0.939 -13.03,-2.982 -5.506,-2.871 -10.282,-7.297 -13.16,-12.837 -2.235,-4.112 -3.84,-8.7 -3.796,-13.428 -0.024,-3.858 1.072,-7.656 2.816,-11.078 1.829,-3.539 4.197,-6.795 6.883,-9.73 1.986,-1.936 4.524,-3.443 7.288,-3.874 0.683,-0.106 1.367,-0.037 2.053,-0.019 m 69.997,14.114 c 2.418,0.478 3.869,2.803 4.667,4.957 1.36,4.027 1.355,8.482 0.081,12.532 -1.776,5.728 -5.852,10.497 -10.675,13.945 -7.388,5.221 -16.704,7.697 -25.706,6.698 -5.98,-0.67 -11.775,-2.951 -16.603,-6.544 -1.208,-1.002 -2.574,-2.032 -3.107,-3.567 -0.209,-0.97 0.951,-1.266 1.691,-1.159 2.355,0.152 4.53,1.303 6.907,1.348 3.707,0.277 7.398,-0.481 10.943,-1.499 3.634,-1.14 7.143,-2.673 10.446,-4.569 2.789,-1.601 5.45,-3.42 7.905,-5.5 3.496,-3.075 6.824,-6.655 8.333,-11.152 0.538,-1.892 1.156,-4.013 2.951,-5.092 0.673,-0.359 1.41,-0.49 2.167,-0.398 m -88.874,44.237 c 2.802,0.487 5,2.482 6.978,4.387 2.343,2.47 4.938,4.697 7.81,6.531 6.06,4.045 12.744,7.122 19.67,9.354 4.437,1.339 9.052,2.489 13.722,2.166 5.264,-0.388 10.44,-1.525 15.517,-2.934 5.125,-1.364 9.987,-3.693 15.249,-4.529 1.463,-0.095 3.246,-0.383 4.384,0.764 0.926,1.234 0.307,2.866 -0.182,4.153 -2.566,5.553 -6.878,10.208 -11.93,13.604 -2.424,1.629 -5.007,3.021 -7.73,4.081 -4.604,1.854 -9.524,2.754 -14.42,3.447 -2.146,0.368 -4.322,0.46 -6.491,0.288 -5.163,-0.333 -10.302,-1.089 -15.354,-2.197 -2.753,-0.52 -5.157,-2.047 -7.552,-3.422 -3.89,-2.39 -7.41,-5.339 -10.672,-8.522 -4.203,-4.151 -8.015,-8.794 -10.678,-14.093 -1.661,-3.195 -2.836,-6.927 -1.969,-10.529 0.384,-1.496 1.779,-2.813 3.402,-2.561 0.082,0.004 0.164,0.008 0.246,0.012"
   style="fill:#ffaaaa"
   inkscape:connector-curvature="0" />
</g>
</g><flowRoot
     transform="translate(-6.9032798,50.048778)"
     style="font-size:40px;font-style:italic;font-weight:bold;line-height:125%;letter-spacing:0px;word-spacing:0px;fill:#666666;fill-opacity:1;stroke:none;font-family:Sans;-inkscape-font-specification:Sans Italic"
     id="flowRoot3006"
     xml:space="preserve"><flowRegion
       id="flowRegion3008"><rect
         style="fill:#666666"
         y="72.499626"
         x="698.09418"
         height="107.86375"
         width="703.27161"
         id="rect3010" /></flowRegion><flowPara
       id="flowPara3014"
       style="font-size:72px;font-style:italic;font-variant:normal;font-weight:bold;font-stretch:normal;fill:#666666;font-family:Shanghai;-inkscape-font-specification:Shanghai Bold Italic">Maria Limpeza</flowPara></flowRoot></g></svg>