<?xml version="1.0" encoding="UTF-8" standalone="no"?>
<!-- Generator: Adobe Illustrator 13.0.0, SVG Export Plug-In . SVG Version: 6.00 Build 14948)  -->

<svg
   xmlns:dc="http://purl.org/dc/elements/1.1/"
   xmlns:cc="http://creativecommons.org/ns#"
   xmlns:rdf="http://www.w3.org/1999/02/22-rdf-syntax-ns#"
   xmlns:svg="http://www.w3.org/2000/svg"
   xmlns="http://www.w3.org/2000/svg"
   xmlns:sodipodi="http://sodipodi.sourceforge.net/DTD/sodipodi-0.dtd"
   xmlns:inkscape="http://www.inkscape.org/namespaces/inkscape"
   version="1.1"
   x="0px"
   y="0px"
   width="744.09448"
   height="1052.3622"
   viewBox="0 0 744.0945 1052.3622"
   enable-background="new 0 0 467.848 469"
   xml:space="preserve"
   id="svg2"
   inkscape:version="0.48.3.1 r9886"
   sodipodi:docname="vectorious-free-retro-vector-floral-illustration.svg"><metadata
   id="metadata2216"><rdf:RDF><cc:Work
       rdf:about=""><dc:format>image/svg+xml</dc:format><dc:type
         rdf:resource="http://purl.org/dc/dcmitype/StillImage" /><dc:title></dc:title></cc:Work></rdf:RDF></metadata><defs
   id="defs2214" /><sodipodi:namedview
   pagecolor="#ffffff"
   bordercolor="#666666"
   borderopacity="1"
   objecttolerance="10"
   gridtolerance="10"
   guidetolerance="10"
   inkscape:pageopacity="0"
   inkscape:pageshadow="2"
   inkscape:window-width="1280"
   inkscape:window-height="744"
   id="namedview2212"
   showgrid="false"
   inkscape:zoom="0.49412646"
   inkscape:cx="372.04724"
   inkscape:cy="526.18109"
   inkscape:window-x="0"
   inkscape:window-y="27"
   inkscape:window-maximized="1"
   inkscape:current-layer="svg2" />

<g
   id="g5193"
   transform="matrix(1.5959855,0,0,2.2563912,5.9598551e-4,-1322.18)"><g
     transform="translate(0,583.36221)"
     id="Layer_2">
	<g
   id="g5">
		<rect
   style="fill:#f9dfd8"
   y="0"
   x="0"
   id="rect7"
   height="469"
   width="467.84799" />
	</g>
</g><g
     transform="translate(0,583.36221)"
     style="opacity:0.47999998"
     id="Layer_6">
	<g
   style="opacity:0.26000001"
   id="g10">
		<path
   style="fill:#f5a99a"
   inkscape:connector-curvature="0"
   id="path12"
   d="M 10.792,43.01 C 8.833,37.203 5.765,30.32 0,29.916 v 19.592 c 3.788,1.81 7.942,3.006 11.86,4.006 l 0.51,-0.51 c -0.409,-3.342 -0.495,-6.78 -1.578,-9.994 z" />
		<path
   style="fill:#f5a99a"
   inkscape:connector-curvature="0"
   id="path14"
   d="M 12.115,53.259 C 9.304,52.854 4.498,53.154 0,54.384 V 70.23 c 3.806,-1.569 7.533,-4.584 9.256,-6.833 2.211,-2.886 2.799,-5.502 2.604,-9.119 l 0.255,-1.019 z" />
		<path
   style="fill:#f5a99a"
   inkscape:connector-curvature="0"
   id="path16"
   d="m 10.841,54.023 c -2.009,7.496 -3.935,20.361 6.818,21.903 11.368,1.63 9.111,-9.359 3.617,-14.75 -3.182,-3.123 -7.401,-4.713 -11.454,-6.39" />
		<path
   style="fill:#f5a99a"
   inkscape:connector-curvature="0"
   id="path18"
   d="m 11.86,53.768 c 4.34,-5.458 11.612,-16.916 20.369,-13.04 4.341,1.92 3.784,6.713 1.67,10.037 -2.438,3.833 -4.634,5.365 -9.043,5.806 -6.345,0.633 -10.925,-0.853 -17.071,-3.057" />
		<path
   style="fill:#e97887"
   inkscape:connector-curvature="0"
   id="path20"
   d="M 4.28,37.949 C 2.213,38.047 0.794,38.841 0,39.979 v 5.315 c 0.255,0.471 0.572,0.932 0.954,1.372 2.668,3.075 7.108,6.523 11.161,7.356 L 11.86,52.494 C 13.162,46.901 12.261,37.571 4.28,37.949 z" />
		<path
   style="fill:#e97887"
   inkscape:connector-curvature="0"
   id="path22"
   d="m 11.86,52.75 c 1.819,-5.886 13.248,-16.983 16.719,-5.922 2.879,9.175 -11.426,7.197 -15.7,6.176" />
		<path
   style="fill:#e97887"
   inkscape:connector-curvature="0"
   id="path24"
   d="m 11.606,54.023 c -1.518,4.771 -2.911,11.816 1.199,15.901 5.688,5.652 10.444,-4.127 6.531,-9.251 -2.158,-2.826 -5.288,-4.77 -8.24,-6.65" />
		<path
   style="fill:#e97887"
   inkscape:connector-curvature="0"
   id="path26"
   d="M 4.603,53.44 C 3.244,53.522 1.536,54.032 0,54.818 v 8.705 c 5.124,1.458 10.551,-5.33 13.134,-8.991 h 2.547 C 12.098,54.038 8.261,53.22 4.603,53.44 z" />
		<circle
   d="m 14.153,53.768002 c 0,0.984723 -0.798276,1.783 -1.783,1.783 -0.984724,0 -1.783,-0.798277 -1.783,-1.783 0,-0.984724 0.798276,-1.783 1.783,-1.783 0.984724,0 1.783,0.798276 1.783,1.783 z"
   style="fill:#5e493f"
   sodipodi:ry="1.783"
   sodipodi:rx="1.783"
   sodipodi:cy="53.768002"
   sodipodi:cx="12.37"
   id="circle28"
   r="1.783"
   cy="53.768002"
   cx="12.37" />
		<g
   id="g30">
			<path
   style="fill:#5e493f"
   inkscape:connector-curvature="0"
   id="path32"
   d="M 10.835,52.751 C 11.872,53.466 9.7,52.405 9.488,52.295 8.398,51.731 7.323,51.241 6.28,50.569 4.325,49.309 2.738,47.536 1.43,45.633 0.831,44.762 0.345,43.832 0,42.88 v 3.631 c 2.698,3.71 7.105,6.613 11.551,6.764 0.022,0 0.102,-0.039 0.113,-0.032 -0.281,-0.151 -0.553,-0.316 -0.816,-0.495 -0.003,-0.002 -0.011,0.004 -0.013,0.003 z" />
			<path
   style="fill:#5e493f"
   inkscape:connector-curvature="0"
   id="path34"
   d="M 12.755,36.33 C 10.401,33.002 6.37,32.482 2.719,33.674 1.66,34.019 0.751,34.516 0,35.129 v 1.957 c 0.424,-0.957 1.094,-1.85 2.065,-2.631 3.949,-3.179 8.602,1.967 10.018,5.231 1.667,3.841 1.126,8.615 0.355,12.606 -0.161,0.052 -0.277,0.102 -0.267,0.139 0.065,0.237 0.13,0.475 0.195,0.712 0.012,0.042 0.997,-0.15 1.026,-0.275 0.05,-0.208 0.099,-0.416 0.149,-0.625 0.159,-0.055 0.284,-0.12 0.313,-0.195 2.024,-5.022 2.102,-11.192 -1.099,-15.718 z" />
		</g>
		<g
   id="g36">
			<path
   style="fill:#5e493f"
   inkscape:connector-curvature="0"
   id="path38"
   d="m 0,51.296 c 1.578,-0.077 3.219,0.245 4.706,0.495 1.007,0.17 5.929,1.064 5.842,1.96 0.01,0.004 0.021,0.007 0.03,0.01 0.314,0.019 0.628,0.038 0.942,0.056 0.256,0.016 0.872,-0.321 0.983,-0.289 C 11.665,53.282 10.838,52.432 9.855,52.101 8.135,51.523 6.409,51.14 4.628,50.817 3.106,50.543 1.527,50.677 0,50.968 v 0.328 z" />
			<path
   style="fill:#5e493f"
   inkscape:connector-curvature="0"
   id="path40"
   d="m 11.457,55.654 c 10e-4,-0.001 0.009,0 0.011,-0.002 0.875,-0.946 -0.542,1.149 -0.674,1.337 C 10.189,57.856 9.65,58.748 9.008,59.591 7.55,61.502 5.745,63.009 3.709,64.26 2.502,65.002 1.235,65.457 0,65.635 v 0.369 c 0.203,-0.047 0.405,-0.094 0.602,-0.152 2.418,-0.716 4.578,-1.759 6.6,-3.285 2.143,-1.618 5.019,-4.744 4.935,-7.611 0,-0.002 -0.105,0.018 -0.115,0.031 -0.189,0.222 -0.377,0.445 -0.565,0.667 z" />
		</g>
		<g
   id="g42">
			<path
   style="fill:#5e493f"
   inkscape:connector-curvature="0"
   id="path44"
   d="m 14.249,54.216 c -0.289,0.015 -0.578,0.025 -0.868,0.029 -0.017,0 -0.108,0.035 -0.112,0.031 3.332,2.587 9.378,0.936 12.958,-0.382 4.804,-1.77 9.29,-6.378 6.106,-11.621 -2.454,-4.041 -7.917,-3.752 -11.663,-1.998 -2.484,1.163 -4.471,2.887 -5.966,5.182 -0.849,1.303 -1.466,2.78 -2.053,4.213 -0.554,1.349 -0.441,2.769 -0.798,3.855 0.028,-0.087 0.891,-0.112 1.026,-0.275 0.8,-0.962 1.047,-2.694 1.648,-4.083 0.818,-1.892 1.934,-3.773 3.16,-5.431 1.562,-2.113 4.244,-4.179 6.937,-4.092 1.999,0.065 3.904,1.29 5.214,2.717 2.434,2.651 1.856,6.603 -0.465,9.057 -2.561,2.708 -6.798,3.675 -10.348,3.63 -1.108,-0.014 -2.176,-0.236 -3.272,-0.356 -0.239,-0.026 -2.821,-0.404 -1.514,-0.473 0.002,0 0.008,-0.003 0.01,-0.003 l 0,0 z" />
		</g>
		<g
   id="g46">
			<path
   style="fill:#5e493f"
   inkscape:connector-curvature="0"
   id="path48"
   d="m 12.622,55.955 c -0.03,-0.309 -0.038,-0.619 -0.024,-0.929 0,0 -0.105,0.016 -0.115,0.031 -3.255,4.935 -0.984,12.297 2.359,16.546 2.302,2.925 5.854,2.801 9.032,1.745 4.276,-1.42 5.963,-6.086 4.535,-10.144 -1.901,-5.401 -8.295,-8.338 -13.546,-9.211 -0.238,-0.04 -1.298,0.17 -1.412,0.396 -0.037,0.074 -0.073,0.146 -0.11,0.22 0.472,-0.127 0.944,-0.253 1.416,-0.379 -0.288,-0.105 -0.575,-0.212 -0.864,-0.318 -0.198,-0.073 -0.958,0.336 -1.025,0.275 0.158,0.141 0.315,0.282 0.474,0.422 0.144,0.127 1.317,-0.216 1.416,-0.379 0.046,-0.075 0.091,-0.151 0.137,-0.227 -0.471,0.133 -0.942,0.265 -1.412,0.397 4.285,1.181 8.601,3.286 11.332,6.89 2.603,3.436 2.64,8.061 -0.512,11.141 -4.047,3.957 -8.692,-2.129 -10.237,-5.329 -0.962,-1.993 -1.412,-4.196 -1.587,-6.387 -0.083,-1.028 -0.074,-2.067 0.038,-3.091 0.022,-0.2 -0.045,-3.013 0.096,-1.668 -0.002,0.002 0.01,0 0.009,-0.001 l 0,0 z" />
		</g>
		<g
   id="g50">
			<path
   style="fill:#5e493f"
   inkscape:connector-curvature="0"
   id="path52"
   d="m 35.92,65.263 c 0.515,-2.088 -0.458,-4.473 -1.542,-6.22 -1.299,-2.094 -3.294,-3.754 -5.431,-4.942 -5.499,-3.057 -11.724,-2.032 -17.387,0.013 -0.206,0.073 -0.126,0.379 0.091,0.33 2.902,-0.673 5.653,-1.695 8.649,-1.945 2.682,-0.224 5.384,0.46 7.783,1.635 2.156,1.057 4.069,2.622 5.506,4.542 0.7,0.935 1.221,1.988 1.593,3.091 0.384,1.143 0.363,2.288 0.499,3.464 0.016,0.127 0.203,0.174 0.239,0.032 l 0,0 z" />
		</g>
		<g
   id="g54">
			<path
   style="fill:#5e493f"
   inkscape:connector-curvature="0"
   id="path56"
   d="m 12.252,53.227 c -0.711,2.858 2.416,5.692 3.78,7.916 1.902,3.101 4.1,6.091 7.162,8.136 2.433,1.625 5.432,2.394 8.301,1.646 2.609,-0.681 4.47,-2.985 4.48,-5.694 0,-0.188 -0.31,-0.24 -0.336,-0.045 -0.392,2.86 -1.922,4.832 -4.805,5.49 -3.094,0.707 -6.24,-0.681 -8.609,-2.589 -2.403,-1.936 -4.198,-4.57 -5.808,-7.168 -1.351,-2.179 -4.266,-4.878 -3.925,-7.658 0.016,-0.14 -0.207,-0.165 -0.24,-0.034 l 0,0 z" />
		</g>
		<g
   id="g58">
			<path
   style="fill:#5e493f"
   inkscape:connector-curvature="0"
   id="path60"
   d="M 11.688,54 C 9.904,48.92 6.592,43.953 7.771,38.352 c 0.977,-4.649 5.285,-9.04 10.178,-9.289 2.603,-0.132 4.537,1.455 5.885,3.526 1.67,2.564 1.185,5.825 0.268,8.556 -0.927,2.764 -2.446,5.467 -4.308,7.703 -1.857,2.23 -4.201,4.034 -6.494,5.788 -0.175,0.133 -0.015,0.432 0.176,0.303 5.312,-3.578 9.421,-8.237 11.355,-14.438 0.849,-2.721 0.889,-5.651 -0.558,-8.169 -1.186,-2.064 -3.094,-3.489 -5.47,-3.771 -4.612,-0.545 -9.266,3.547 -10.865,7.58 -2.537,6.398 1.111,12.166 3.593,17.925 0.039,0.089 0.19,0.025 0.157,-0.066 l 0,0 z" />
		</g>
		<g
   id="g62">
			<path
   style="fill:#5e493f"
   inkscape:connector-curvature="0"
   id="path64"
   d="m 0,44.5 c 0.223,0.031 0.447,0.064 0.667,0.11 2.168,0.456 4.177,1.6 5.88,2.988 1.808,1.476 3.008,3.447 4.471,5.23 0.08,0.097 0.249,-0.033 0.175,-0.136 C 9.629,50.542 8.453,48.455 6.318,46.778 4.484,45.342 2.297,44.354 0,43.962 V 44.5 z" />
			<path
   style="fill:#5e493f"
   inkscape:connector-curvature="0"
   id="path66"
   d="M 11.747,54.338 C 9.916,55.56 8.137,56.857 6.134,57.793 4.211,58.693 2.105,59.01 0,58.932 v 0.623 c 4.481,0.192 8.5,-2.084 12.02,-4.863 0.2,-0.159 -0.062,-0.495 -0.273,-0.354 z" />
		</g>
	</g>
	<g
   style="opacity:0.26000001"
   id="g68">
		<path
   style="fill:#f5a99a"
   inkscape:connector-curvature="0"
   id="path70"
   d="m 35.413,355.603 c -6.694,-1.706 -14.105,-3.934 -19.132,-8.945 -4.849,-4.832 -3.826,-10.775 2.444,-13.64 9.001,-4.11 13.172,4.831 15.619,12.084 1.084,3.212 1.169,6.65 1.578,9.993" />
		<path
   style="fill:#f5a99a"
   inkscape:connector-curvature="0"
   id="path72"
   d="m 35.668,355.349 c -6.916,-0.994 -25.903,2.274 -22.671,13.153 3.05,10.271 16.094,1.838 19.812,-3.015 2.211,-2.887 2.8,-5.502 2.605,-9.118" />
		<path
   style="fill:#f5a99a"
   inkscape:connector-curvature="0"
   id="path74"
   d="m 34.394,356.114 c -2.009,7.495 -3.935,20.36 6.818,21.903 11.368,1.629 9.111,-9.361 3.618,-14.751 -3.183,-3.121 -7.402,-4.713 -11.454,-6.39" />
		<path
   style="fill:#f5a99a"
   inkscape:connector-curvature="0"
   id="path76"
   d="m 35.413,355.858 c 4.339,-5.458 11.611,-16.915 20.369,-13.041 4.341,1.921 3.784,6.714 1.67,10.037 -2.438,3.834 -4.634,5.366 -9.044,5.808 -6.344,0.632 -10.925,-0.853 -17.071,-3.06" />
		<path
   style="fill:#e97887"
   inkscape:connector-curvature="0"
   id="path78"
   d="m 35.668,356.114 c -4.054,-0.833 -8.493,-4.28 -11.161,-7.358 -3.081,-3.549 -2.034,-8.463 3.326,-8.716 7.98,-0.378 8.881,8.951 7.581,14.546" />
		<path
   style="fill:#e97887"
   inkscape:connector-curvature="0"
   id="path80"
   d="m 35.413,354.84 c 1.818,-5.885 13.248,-16.983 16.719,-5.922 2.879,9.176 -11.425,7.198 -15.7,6.177" />
		<path
   style="fill:#e97887"
   inkscape:connector-curvature="0"
   id="path82"
   d="m 35.159,356.114 c -1.517,4.771 -2.911,11.816 1.199,15.9 5.688,5.652 10.444,-4.127 6.531,-9.252 -2.158,-2.824 -5.288,-4.769 -8.24,-6.648" />
		<path
   style="fill:#e97887"
   inkscape:connector-curvature="0"
   id="path84"
   d="m 36.687,356.623 c -2.848,4.036 -9.153,11.873 -14.697,8.271 -6.529,-4.242 1.711,-9.095 6.166,-9.362 3.659,-0.222 7.495,0.598 11.079,1.092" />
		<circle
   d="m 37.705001,355.858 c 0,0.98473 -0.798276,1.783 -1.783,1.783 -0.984724,0 -1.783,-0.79827 -1.783,-1.783 0,-0.98472 0.798276,-1.783 1.783,-1.783 0.984724,0 1.783,0.79828 1.783,1.783 z"
   style="fill:#5e493f"
   sodipodi:ry="1.783"
   sodipodi:rx="1.783"
   sodipodi:cy="355.858"
   sodipodi:cx="35.922001"
   id="circle86"
   r="1.783"
   cy="355.858"
   cx="35.922001" />
		<g
   id="g88">
			<path
   style="fill:#5e493f"
   inkscape:connector-curvature="0"
   id="path90"
   d="m 34.388,354.842 c 1.037,0.715 -1.135,-0.346 -1.347,-0.456 -1.09,-0.565 -2.166,-1.054 -3.209,-1.727 -1.955,-1.259 -3.542,-3.033 -4.849,-4.935 -2.479,-3.606 -3.074,-8.196 0.634,-11.18 3.949,-3.179 8.603,1.967 10.019,5.229 1.687,3.888 1.113,8.731 0.33,12.749 0.471,-0.133 0.941,-0.264 1.412,-0.396 -0.088,0.001 -0.178,0.002 -0.267,0.004 -0.146,10e-4 -1.419,0.269 -1.386,0.39 0.065,0.236 0.13,0.476 0.195,0.711 0.012,0.043 0.996,-0.151 1.026,-0.274 0.065,-0.272 0.13,-0.545 0.195,-0.817 -0.462,0.131 -0.924,0.262 -1.387,0.391 0.081,10e-4 0.162,0.003 0.243,0.004 0.243,0.004 1.313,-0.151 1.412,-0.396 2.023,-5.021 2.101,-11.19 -1.1,-15.718 -2.354,-3.328 -6.385,-3.848 -10.037,-2.656 -4.405,1.438 -6.289,5.451 -4.458,9.802 2.124,5.047 7.683,9.61 13.291,9.801 0.022,0.001 0.102,-0.039 0.113,-0.033 -0.281,-0.15 -0.553,-0.314 -0.816,-0.495 -0.005,-0.004 -0.012,0.003 -0.014,0.002 l 0,0 z" />
		</g>
		<g
   id="g92">
			<path
   style="fill:#5e493f"
   inkscape:connector-curvature="0"
   id="path94"
   d="m 35.021,357.741 c 0.874,-0.945 -0.543,1.15 -0.674,1.337 -0.605,0.867 -1.143,1.76 -1.786,2.603 -1.458,1.91 -3.264,3.418 -5.299,4.67 -4.461,2.741 -9.753,1.695 -11.108,-3.576 -0.973,-3.779 1.592,-7.262 4.844,-8.799 2.244,-1.062 4.94,-0.484 7.26,-0.095 1.007,0.172 5.929,1.065 5.842,1.962 0.01,0.004 0.021,0.007 0.03,0.01 0.314,0.019 0.628,0.039 0.942,0.057 0.256,0.016 0.872,-0.321 0.983,-0.289 -0.838,-0.247 -1.666,-1.097 -2.648,-1.427 -1.72,-0.579 -3.446,-0.961 -5.228,-1.284 -2.036,-0.37 -4.173,-0.005 -6.153,0.487 -4.65,1.155 -8.569,4.048 -8.121,9.321 0.443,5.22 6.108,6.45 10.248,5.225 2.418,-0.717 4.578,-1.759 6.6,-3.284 2.143,-1.619 5.02,-4.745 4.935,-7.612 0,-0.003 -0.105,0.018 -0.115,0.032 -0.188,0.222 -0.376,0.444 -0.563,0.667 0.001,-0.002 0.008,-0.002 0.011,-0.005 l 0,0 z" />
		</g>
		<g
   id="g96">
			<path
   style="fill:#5e493f"
   inkscape:connector-curvature="0"
   id="path98"
   d="m 37.801,356.307 c -0.289,0.015 -0.578,0.024 -0.868,0.029 -0.017,10e-4 -0.108,0.035 -0.112,0.031 3.332,2.588 9.378,0.935 12.958,-0.383 4.804,-1.77 9.29,-6.38 6.105,-11.621 -2.454,-4.04 -7.917,-3.751 -11.662,-1.998 -2.484,1.163 -4.471,2.887 -5.967,5.184 -0.849,1.301 -1.466,2.779 -2.053,4.211 -0.554,1.35 -0.441,2.77 -0.799,3.856 0.028,-0.087 0.891,-0.112 1.027,-0.276 0.799,-0.961 1.047,-2.694 1.648,-4.083 0.818,-1.893 1.934,-3.772 3.159,-5.431 1.562,-2.113 4.244,-4.179 6.938,-4.091 1.999,0.065 3.904,1.289 5.214,2.716 2.434,2.651 1.855,6.604 -0.465,9.057 -2.562,2.709 -6.798,3.675 -10.348,3.63 -1.108,-0.013 -2.176,-0.236 -3.272,-0.354 -0.239,-0.027 -2.821,-0.405 -1.514,-0.474 0.004,0 0.009,-0.003 0.011,-0.003 l 0,0 z" />
		</g>
		<g
   id="g100">
			<path
   style="fill:#5e493f"
   inkscape:connector-curvature="0"
   id="path102"
   d="m 36.175,358.045 c -0.03,-0.31 -0.038,-0.618 -0.024,-0.93 0,0 -0.105,0.018 -0.115,0.032 -3.255,4.934 -0.984,12.298 2.359,16.546 2.302,2.924 5.854,2.8 9.031,1.744 4.276,-1.42 5.964,-6.085 4.536,-10.144 -1.902,-5.399 -8.295,-8.339 -13.547,-9.211 -0.238,-0.038 -1.298,0.171 -1.411,0.398 -0.037,0.071 -0.074,0.146 -0.111,0.218 0.472,-0.126 0.945,-0.252 1.417,-0.378 -0.288,-0.106 -0.576,-0.213 -0.864,-0.318 -0.199,-0.074 -0.958,0.336 -1.025,0.275 0.157,0.14 0.315,0.281 0.473,0.421 0.144,0.129 1.318,-0.215 1.417,-0.378 0.045,-0.077 0.091,-0.151 0.136,-0.228 -0.47,0.132 -0.942,0.266 -1.412,0.397 4.286,1.181 8.601,3.284 11.332,6.891 2.604,3.436 2.64,8.06 -0.511,11.14 -4.048,3.957 -8.692,-2.129 -10.237,-5.327 -0.962,-1.993 -1.412,-4.197 -1.587,-6.388 -0.083,-1.027 -0.074,-2.067 0.038,-3.092 0.022,-0.199 -0.045,-3.013 0.095,-1.668 -0.002,0.002 0.01,10e-4 0.01,0 l 0,0 z" />
		</g>
		<g
   id="g104">
			<path
   style="fill:#5e493f"
   inkscape:connector-curvature="0"
   id="path106"
   d="m 59.473,367.354 c 0.515,-2.089 -0.458,-4.474 -1.542,-6.221 -1.3,-2.095 -3.294,-3.754 -5.431,-4.942 -5.5,-3.057 -11.724,-2.032 -17.387,0.013 -0.206,0.074 -0.126,0.38 0.091,0.33 2.902,-0.674 5.653,-1.695 8.649,-1.945 2.682,-0.224 5.384,0.459 7.783,1.634 2.156,1.058 4.069,2.623 5.506,4.545 0.7,0.933 1.221,1.986 1.593,3.09 0.384,1.144 0.363,2.289 0.499,3.464 0.015,0.127 0.203,0.174 0.239,0.032 l 0,0 z" />
		</g>
		<g
   id="g108">
			<path
   style="fill:#5e493f"
   inkscape:connector-curvature="0"
   id="path110"
   d="m 35.805,355.317 c -0.712,2.858 2.416,5.691 3.78,7.915 1.902,3.102 4.1,6.09 7.161,8.137 2.433,1.625 5.433,2.392 8.301,1.646 2.609,-0.681 4.471,-2.985 4.48,-5.694 10e-4,-0.187 -0.309,-0.24 -0.336,-0.045 -0.392,2.859 -1.923,4.832 -4.805,5.49 -3.094,0.705 -6.24,-0.681 -8.609,-2.589 -2.403,-1.937 -4.198,-4.57 -5.809,-7.169 -1.351,-2.181 -4.266,-4.879 -3.924,-7.659 0.017,-0.138 -0.206,-0.162 -0.239,-0.032 l 0,0 z" />
		</g>
		<g
   id="g112">
			<path
   style="fill:#5e493f"
   inkscape:connector-curvature="0"
   id="path114"
   d="m 35.241,356.091 c -1.784,-5.079 -5.095,-10.047 -3.917,-15.648 0.977,-4.649 5.285,-9.041 10.178,-9.288 2.603,-0.133 4.537,1.454 5.884,3.526 1.67,2.564 1.185,5.825 0.269,8.555 -0.927,2.765 -2.446,5.468 -4.308,7.704 -1.858,2.229 -4.201,4.034 -6.494,5.786 -0.175,0.134 -0.016,0.433 0.176,0.304 5.313,-3.579 9.421,-8.237 11.355,-14.438 0.849,-2.721 0.889,-5.652 -0.558,-8.17 -1.186,-2.063 -3.094,-3.488 -5.471,-3.77 -4.612,-0.545 -9.266,3.548 -10.865,7.58 -2.537,6.396 1.11,12.165 3.593,17.924 0.04,0.089 0.19,0.026 0.158,-0.065 l 0,0 z" />
		</g>
		<g
   id="g116">
			<path
   style="fill:#5e493f"
   inkscape:connector-curvature="0"
   id="path118"
   d="m 34.745,354.783 c -1.563,-2.15 -2.739,-4.237 -4.875,-5.914 -1.91,-1.496 -4.201,-2.525 -6.604,-2.879 -4.177,-0.611 -8.648,1.866 -9.18,6.303 -0.568,4.744 2.931,8.111 7.325,9.076 5.351,1.177 10.09,-1.372 14.162,-4.586 0.201,-0.16 -0.062,-0.496 -0.272,-0.354 -1.832,1.223 -3.61,2.519 -5.613,3.455 -2.106,0.985 -4.432,1.297 -6.736,1.127 -4.451,-0.327 -8.525,-3.349 -8.362,-8.104 0.171,-4.977 5.315,-7.114 9.63,-6.207 2.168,0.456 4.177,1.6 5.879,2.988 1.808,1.476 3.009,3.446 4.471,5.23 0.08,0.099 0.249,-0.032 0.175,-0.135 l 0,0 z" />
		</g>
	</g>
	<g
   style="opacity:0.26000001"
   id="g120">
		<path
   style="fill:#f5a99a"
   inkscape:connector-curvature="0"
   id="path122"
   d="m 371.895,412.067 c -6.695,-1.707 -14.104,-3.935 -19.132,-8.946 -4.848,-4.832 -3.826,-10.774 2.444,-13.639 9.001,-4.111 13.173,4.831 15.619,12.083 1.083,3.213 1.168,6.651 1.578,9.994" />
		<path
   style="fill:#f5a99a"
   inkscape:connector-curvature="0"
   id="path124"
   d="m 372.15,411.813 c -6.916,-0.995 -25.904,2.273 -22.672,13.152 3.05,10.272 16.095,1.838 19.811,-3.015 2.213,-2.887 2.8,-5.502 2.605,-9.119" />
		<path
   style="fill:#f5a99a"
   inkscape:connector-curvature="0"
   id="path126"
   d="m 370.876,412.578 c -2.01,7.494 -3.936,20.36 6.817,21.904 11.367,1.629 9.112,-9.361 3.618,-14.751 -3.183,-3.122 -7.401,-4.713 -11.455,-6.39" />
		<path
   style="fill:#f5a99a"
   inkscape:connector-curvature="0"
   id="path128"
   d="m 371.895,412.323 c 4.339,-5.458 11.612,-16.917 20.369,-13.041 4.341,1.92 3.783,6.713 1.67,10.037 -2.437,3.833 -4.634,5.365 -9.043,5.807 -6.345,0.633 -10.926,-0.854 -17.07,-3.059" />
		<path
   style="fill:#e97887"
   inkscape:connector-curvature="0"
   id="path130"
   d="m 372.15,412.578 c -4.054,-0.832 -8.493,-4.281 -11.162,-7.357 -3.08,-3.549 -2.033,-8.464 3.325,-8.717 7.98,-0.378 8.884,8.951 7.581,14.546" />
		<path
   style="fill:#e97887"
   inkscape:connector-curvature="0"
   id="path132"
   d="m 371.895,411.305 c 1.818,-5.885 13.248,-16.983 16.719,-5.922 2.879,9.176 -11.425,7.197 -15.7,6.177" />
		<path
   style="fill:#e97887"
   inkscape:connector-curvature="0"
   id="path134"
   d="m 371.641,412.578 c -1.518,4.771 -2.912,11.816 1.199,15.901 5.688,5.65 10.444,-4.128 6.53,-9.252 -2.157,-2.825 -5.287,-4.771 -8.24,-6.649" />
		<path
   style="fill:#e97887"
   inkscape:connector-curvature="0"
   id="path136"
   d="m 373.168,413.087 c -2.848,4.037 -9.152,11.874 -14.698,8.271 -6.528,-4.243 1.711,-9.096 6.168,-9.362 3.658,-0.222 7.494,0.597 11.077,1.091" />
		<circle
   d="m 374.188,412.323 c 0,0.98472 -0.79828,1.783 -1.783,1.783 -0.98472,0 -1.783,-0.79828 -1.783,-1.783 0,-0.98473 0.79828,-1.783 1.783,-1.783 0.98472,0 1.783,0.79827 1.783,1.783 z"
   style="fill:#5e493f"
   sodipodi:ry="1.783"
   sodipodi:rx="1.783"
   sodipodi:cy="412.323"
   sodipodi:cx="372.405"
   id="circle138"
   r="1.783"
   cy="412.323"
   cx="372.405" />
		<g
   id="g140">
			<path
   style="fill:#5e493f"
   inkscape:connector-curvature="0"
   id="path142"
   d="m 370.869,411.306 c 1.037,0.716 -1.135,-0.345 -1.347,-0.455 -1.091,-0.565 -2.165,-1.054 -3.208,-1.728 -1.956,-1.259 -3.543,-3.032 -4.851,-4.934 -2.478,-3.607 -3.072,-8.196 0.635,-11.18 3.949,-3.179 8.603,1.967 10.019,5.229 1.687,3.888 1.113,8.73 0.33,12.749 0.47,-0.133 0.94,-0.265 1.41,-0.397 -0.087,0.001 -0.177,0.003 -0.265,0.005 -0.146,10e-4 -1.42,0.268 -1.387,0.39 0.064,0.236 0.13,0.474 0.194,0.711 0.012,0.043 0.996,-0.151 1.026,-0.274 0.064,-0.272 0.13,-0.545 0.195,-0.817 -0.463,0.131 -0.925,0.261 -1.386,0.391 0.08,0.001 0.16,0.002 0.241,0.003 0.243,0.003 1.313,-0.15 1.412,-0.396 2.023,-5.021 2.1,-11.191 -1.101,-15.718 -2.354,-3.329 -6.385,-3.848 -10.036,-2.656 -4.405,1.438 -6.289,5.451 -4.458,9.802 2.124,5.047 7.682,9.609 13.29,9.8 0.022,0.002 0.102,-0.038 0.112,-0.033 -0.281,-0.149 -0.552,-0.314 -0.816,-0.495 0,-0.003 -0.007,0.004 -0.009,0.003 l 0,0 z" />
		</g>
		<g
   id="g144">
			<path
   style="fill:#5e493f"
   inkscape:connector-curvature="0"
   id="path146"
   d="m 371.502,414.205 c 0.876,-0.944 -0.542,1.151 -0.673,1.338 -0.605,0.865 -1.144,1.759 -1.787,2.601 -1.456,1.912 -3.264,3.42 -5.298,4.671 -4.461,2.742 -9.752,1.695 -11.108,-3.575 -0.973,-3.779 1.592,-7.262 4.844,-8.799 2.244,-1.063 4.94,-0.484 7.26,-0.095 1.007,0.171 5.93,1.064 5.842,1.961 0.012,0.005 0.021,0.008 0.031,0.011 0.313,0.019 0.628,0.038 0.941,0.056 0.257,0.017 0.873,-0.321 0.983,-0.288 -0.839,-0.247 -1.666,-1.097 -2.649,-1.428 -1.719,-0.578 -3.445,-0.961 -5.226,-1.284 -2.037,-0.369 -4.175,-0.004 -6.153,0.488 -4.651,1.155 -8.568,4.047 -8.12,9.321 0.443,5.22 6.106,6.449 10.247,5.225 2.418,-0.718 4.578,-1.76 6.599,-3.286 2.143,-1.617 5.02,-4.744 4.937,-7.61 -0.001,-0.003 -0.106,0.018 -0.115,0.03 -0.189,0.224 -0.376,0.446 -0.565,0.668 0,-0.003 0.007,-0.003 0.01,-0.005 l 0,0 z" />
		</g>
		<g
   id="g148">
			<path
   style="fill:#5e493f"
   inkscape:connector-curvature="0"
   id="path150"
   d="m 374.283,412.771 c -0.29,0.014 -0.578,0.024 -0.868,0.028 -0.018,0.002 -0.108,0.035 -0.113,0.031 3.333,2.588 9.379,0.936 12.96,-0.382 4.803,-1.771 9.289,-6.38 6.105,-11.621 -2.455,-4.04 -7.917,-3.753 -11.663,-1.998 -2.484,1.163 -4.472,2.887 -5.966,5.183 -0.85,1.302 -1.467,2.779 -2.054,4.212 -0.554,1.35 -0.441,2.77 -0.798,3.854 0.026,-0.086 0.89,-0.11 1.026,-0.275 0.799,-0.961 1.047,-2.693 1.647,-4.082 0.818,-1.894 1.933,-3.773 3.16,-5.431 1.562,-2.113 4.243,-4.181 6.937,-4.093 1.998,0.065 3.905,1.291 5.215,2.718 2.434,2.651 1.855,6.603 -0.467,9.056 -2.562,2.709 -6.796,3.676 -10.347,3.631 -1.108,-0.014 -2.177,-0.236 -3.272,-0.356 -0.24,-0.026 -2.822,-0.403 -1.514,-0.472 0.004,0 0.01,-0.003 0.012,-0.003 l 0,0 z" />
		</g>
		<g
   id="g152">
			<path
   style="fill:#5e493f"
   inkscape:connector-curvature="0"
   id="path154"
   d="m 372.656,414.51 c -0.03,-0.31 -0.038,-0.619 -0.024,-0.93 0,0 -0.105,0.017 -0.115,0.031 -3.254,4.935 -0.983,12.297 2.36,16.547 2.301,2.924 5.854,2.8 9.03,1.744 4.276,-1.42 5.965,-6.086 4.536,-10.144 -1.902,-5.4 -8.295,-8.339 -13.546,-9.211 -0.238,-0.039 -1.298,0.17 -1.413,0.397 -0.035,0.071 -0.072,0.146 -0.11,0.219 0.473,-0.127 0.946,-0.252 1.417,-0.379 -0.287,-0.105 -0.575,-0.212 -0.864,-0.318 -0.199,-0.073 -0.957,0.337 -1.024,0.275 0.157,0.14 0.314,0.282 0.472,0.422 0.145,0.127 1.319,-0.216 1.417,-0.379 0.046,-0.076 0.091,-0.15 0.136,-0.228 -0.47,0.133 -0.94,0.267 -1.411,0.398 4.286,1.18 8.601,3.284 11.332,6.891 2.604,3.436 2.64,8.06 -0.512,11.14 -4.048,3.957 -8.692,-2.129 -10.237,-5.329 -0.962,-1.992 -1.411,-4.195 -1.586,-6.387 -0.084,-1.026 -0.075,-2.067 0.036,-3.092 0.021,-0.198 -0.046,-3.012 0.096,-1.667 -0.001,0.002 0.01,0.001 0.01,0 l 0,0 z" />
		</g>
		<g
   id="g156">
			<path
   style="fill:#5e493f"
   inkscape:connector-curvature="0"
   id="path158"
   d="m 395.955,423.818 c 0.516,-2.089 -0.459,-4.474 -1.542,-6.222 -1.301,-2.094 -3.295,-3.754 -5.431,-4.941 -5.5,-3.057 -11.724,-2.032 -17.388,0.013 -0.205,0.073 -0.127,0.38 0.092,0.328 2.9,-0.672 5.653,-1.694 8.648,-1.943 2.682,-0.224 5.384,0.459 7.783,1.634 2.156,1.058 4.069,2.621 5.505,4.544 0.7,0.934 1.223,1.987 1.594,3.09 0.385,1.144 0.363,2.289 0.5,3.465 0.013,0.126 0.203,0.174 0.239,0.032 l 0,0 z" />
		</g>
		<g
   id="g160">
			<path
   style="fill:#5e493f"
   inkscape:connector-curvature="0"
   id="path162"
   d="m 372.287,411.781 c -0.712,2.858 2.415,5.692 3.779,7.916 1.902,3.101 4.101,6.09 7.162,8.136 2.433,1.625 5.433,2.393 8.3,1.646 2.609,-0.682 4.471,-2.984 4.481,-5.693 0,-0.188 -0.312,-0.24 -0.337,-0.045 -0.393,2.858 -1.924,4.832 -4.806,5.489 -3.094,0.706 -6.239,-0.68 -8.609,-2.589 -2.403,-1.936 -4.197,-4.569 -5.808,-7.169 -1.352,-2.18 -4.267,-4.879 -3.925,-7.658 0.018,-0.138 -0.206,-0.163 -0.237,-0.033 l 0,0 z" />
		</g>
		<g
   id="g164">
			<path
   style="fill:#5e493f"
   inkscape:connector-curvature="0"
   id="path166"
   d="m 371.723,412.555 c -1.784,-5.079 -5.096,-10.047 -3.918,-15.647 0.979,-4.649 5.286,-9.041 10.18,-9.289 2.601,-0.133 4.536,1.455 5.884,3.526 1.672,2.564 1.185,5.826 0.269,8.556 -0.927,2.765 -2.446,5.467 -4.308,7.702 -1.857,2.231 -4.201,4.034 -6.494,5.788 -0.175,0.133 -0.015,0.433 0.177,0.303 5.312,-3.578 9.422,-8.237 11.354,-14.437 0.849,-2.721 0.889,-5.652 -0.558,-8.17 -1.186,-2.063 -3.094,-3.488 -5.47,-3.771 -4.613,-0.544 -9.267,3.547 -10.866,7.58 -2.536,6.397 1.112,12.166 3.593,17.925 0.038,0.089 0.188,0.025 0.157,-0.066 l 0,0 z" />
		</g>
		<g
   id="g168">
			<path
   style="fill:#5e493f"
   inkscape:connector-curvature="0"
   id="path170"
   d="m 371.228,411.248 c -1.564,-2.151 -2.739,-4.238 -4.875,-5.914 -1.911,-1.498 -4.202,-2.525 -6.606,-2.879 -4.177,-0.612 -8.646,1.866 -9.18,6.302 -0.567,4.745 2.931,8.111 7.325,9.077 5.352,1.177 10.091,-1.372 14.162,-4.588 0.2,-0.159 -0.062,-0.494 -0.272,-0.353 -1.831,1.222 -3.61,2.519 -5.613,3.455 -2.105,0.985 -4.432,1.296 -6.733,1.127 -4.453,-0.327 -8.526,-3.349 -8.364,-8.104 0.171,-4.976 5.315,-7.113 9.631,-6.206 2.168,0.456 4.177,1.599 5.879,2.988 1.809,1.476 3.009,3.446 4.472,5.229 0.078,0.097 0.248,-0.032 0.174,-0.134 l 0,0 z" />
		</g>
	</g>
	<g
   style="opacity:0.26000001"
   id="g172">
		<path
   style="fill:#f5a99a"
   inkscape:connector-curvature="0"
   id="path174"
   d="m 455.67,289.733 c -6.694,-1.708 -14.105,-3.935 -19.132,-8.946 -4.848,-4.833 -3.827,-10.774 2.443,-13.639 9.002,-4.111 13.173,4.831 15.62,12.083 1.083,3.213 1.168,6.651 1.577,9.993" />
		<path
   style="fill:#f5a99a"
   inkscape:connector-curvature="0"
   id="path176"
   d="m 455.925,289.479 c -6.916,-0.996 -25.903,2.273 -22.672,13.152 3.051,10.272 16.095,1.837 19.812,-3.016 2.213,-2.886 2.799,-5.501 2.605,-9.118" />
		<path
   style="fill:#f5a99a"
   inkscape:connector-curvature="0"
   id="path178"
   d="m 467.848,301.049 c -0.747,-1.34 -1.691,-2.603 -2.762,-3.651 -2.987,-2.932 -6.89,-4.514 -10.71,-6.084 -1.885,7.588 -3.166,19.361 7.092,20.834 3.035,0.435 5.089,-0.035 6.38,-1.051 v -10.048 z" />
		<path
   style="fill:#f5a99a"
   inkscape:connector-curvature="0"
   id="path180"
   d="m 467.848,277.399 c -5.077,2.647 -9.283,8.947 -12.178,12.589 l -4.075,-0.255 c 5.872,2.107 10.333,3.535 16.253,3.108 v -15.442 z" />
		<path
   style="fill:#e97887"
   inkscape:connector-curvature="0"
   id="path182"
   d="m 455.925,290.244 c -4.054,-0.832 -8.493,-4.281 -11.16,-7.357 -3.082,-3.549 -2.035,-8.464 3.323,-8.717 7.98,-0.378 8.884,8.951 7.582,14.546" />
		<path
   style="fill:#e97887"
   inkscape:connector-curvature="0"
   id="path184"
   d="m 467.848,278.359 c -4.701,-0.425 -10.883,6.414 -12.178,10.611 l 1.018,0.254 c 2.259,0.54 7.316,1.345 11.16,0.632 v -11.497 z" />
		<path
   style="fill:#e97887"
   inkscape:connector-curvature="0"
   id="path186"
   d="m 455.415,290.244 c -1.517,4.771 -2.911,11.815 1.199,15.901 5.688,5.65 10.444,-4.129 6.53,-9.252 -2.157,-2.826 -5.287,-4.771 -8.238,-6.649" />
		<path
   style="fill:#e97887"
   inkscape:connector-curvature="0"
   id="path188"
   d="m 456.943,290.752 c -2.849,4.038 -9.153,11.874 -14.697,8.272 -6.529,-4.243 1.709,-9.096 6.166,-9.363 3.659,-0.221 7.494,0.598 11.078,1.091" />
		<circle
   d="m 457.96199,289.98801 c 0,0.98472 -0.79828,1.783 -1.783,1.783 -0.98473,0 -1.783,-0.79828 -1.783,-1.783 0,-0.98473 0.79827,-1.783 1.783,-1.783 0.98472,0 1.783,0.79827 1.783,1.783 z"
   style="fill:#5e493f"
   sodipodi:ry="1.783"
   sodipodi:rx="1.783"
   sodipodi:cy="289.98801"
   sodipodi:cx="456.17899"
   id="circle190"
   r="1.783"
   cy="289.98801"
   cx="456.17899" />
		<g
   id="g192">
			<path
   style="fill:#5e493f"
   inkscape:connector-curvature="0"
   id="path194"
   d="m 454.645,288.972 c 1.037,0.716 -1.134,-0.345 -1.348,-0.456 -1.09,-0.564 -2.164,-1.053 -3.208,-1.727 -1.956,-1.259 -3.543,-3.032 -4.851,-4.934 -2.478,-3.607 -3.072,-8.196 0.635,-11.181 3.951,-3.178 8.603,1.968 10.02,5.23 1.687,3.887 1.112,8.729 0.329,12.749 0.471,-0.133 0.94,-0.265 1.412,-0.397 -0.088,0.001 -0.179,0.003 -0.267,0.005 -0.146,10e-4 -1.42,0.268 -1.387,0.39 0.064,0.235 0.13,0.474 0.194,0.711 0.012,0.043 0.996,-0.151 1.026,-0.274 0.065,-0.272 0.131,-0.545 0.195,-0.817 -0.462,0.131 -0.925,0.261 -1.386,0.391 0.08,0.001 0.161,0.002 0.241,0.003 0.243,0.003 1.314,-0.15 1.413,-0.396 2.022,-5.021 2.1,-11.192 -1.101,-15.719 -2.354,-3.328 -6.386,-3.849 -10.036,-2.655 -4.406,1.438 -6.289,5.451 -4.459,9.802 2.124,5.046 7.682,9.609 13.29,9.8 0.022,10e-4 0.102,-0.038 0.113,-0.033 -0.281,-0.15 -0.553,-0.315 -0.815,-0.495 -0.003,-0.003 -0.009,0.004 -0.01,0.003 l 0,0 z" />
		</g>
		<g
   id="g196">
			<path
   style="fill:#5e493f"
   inkscape:connector-curvature="0"
   id="path198"
   d="m 455.277,291.871 c 0.875,-0.945 -0.543,1.149 -0.674,1.338 -0.605,0.865 -1.144,1.759 -1.787,2.601 -1.456,1.911 -3.263,3.42 -5.298,4.67 -4.461,2.743 -9.752,1.696 -11.108,-3.574 -0.973,-3.779 1.592,-7.262 4.845,-8.799 2.243,-1.063 4.94,-0.485 7.259,-0.095 1.008,0.171 5.93,1.064 5.843,1.961 0.011,0.003 0.02,0.008 0.03,0.011 0.314,0.019 0.629,0.037 0.941,0.056 0.257,0.017 0.873,-0.321 0.984,-0.288 -0.839,-0.247 -1.666,-1.097 -2.649,-1.428 -1.72,-0.578 -3.445,-0.961 -5.227,-1.284 -2.036,-0.369 -4.175,-0.004 -6.153,0.488 -4.65,1.155 -8.568,4.047 -8.12,9.32 0.443,5.221 6.106,6.45 10.247,5.226 2.418,-0.718 4.578,-1.76 6.599,-3.286 2.144,-1.617 5.021,-4.744 4.937,-7.611 -0.001,-0.002 -0.106,0.019 -0.115,0.031 -0.188,0.224 -0.375,0.446 -0.564,0.667 10e-4,-0.002 0.007,-0.002 0.01,-0.004 l 0,0 z" />
		</g>
		<g
   id="g200">
			<path
   style="fill:#5e493f"
   inkscape:connector-curvature="0"
   id="path202"
   d="m 467.848,275.446 c -1.186,0.199 -2.342,0.569 -3.367,1.05 -2.485,1.163 -4.474,2.887 -5.968,5.182 -0.85,1.303 -1.467,2.78 -2.054,4.213 -0.554,1.349 -0.44,2.77 -0.797,3.854 0.026,-0.086 0.889,-0.11 1.025,-0.275 0.799,-0.961 1.047,-2.693 1.647,-4.083 0.818,-1.893 1.934,-3.773 3.16,-5.431 1.449,-1.96 3.862,-3.855 6.353,-4.054 v -0.456 z" />
			<path
   style="fill:#5e493f"
   inkscape:connector-curvature="0"
   id="path204"
   d="m 467.848,290.627 c -1.668,0.46 -3.408,0.662 -5.014,0.642 -1.109,-0.015 -2.177,-0.236 -3.273,-0.356 -0.24,-0.026 -2.82,-0.403 -1.513,-0.472 0.002,0 0.008,-0.003 0.011,-0.003 -0.29,0.014 -0.578,0.024 -0.869,0.028 -0.016,10e-4 -0.107,0.034 -0.112,0.031 2.721,2.113 7.251,1.398 10.771,0.348 v -0.218 z" />
		</g>
		<g
   id="g206">
			<path
   style="fill:#5e493f"
   inkscape:connector-curvature="0"
   id="path208"
   d="m 457.786,290.771 c 3.741,1.093 7.442,2.912 10.062,5.832 v -2.713 c -2.713,-1.967 -6.133,-3.172 -9.176,-3.677 -0.097,-0.016 -0.332,0.01 -0.582,0.063 -0.129,-0.048 -0.259,-0.097 -0.388,-0.144 -0.199,-0.073 -0.958,0.336 -1.025,0.275 0.157,0.14 0.315,0.282 0.473,0.422 0.064,0.059 0.344,0.018 0.636,-0.058 z" />
			<path
   style="fill:#5e493f"
   inkscape:connector-curvature="0"
   id="path210"
   d="m 467.848,308.868 c -3.983,3.454 -8.463,-2.414 -9.974,-5.545 -0.962,-1.993 -1.411,-4.196 -1.587,-6.388 -0.083,-1.026 -0.074,-2.066 0.037,-3.091 0.021,-0.198 -0.046,-3.012 0.096,-1.667 0,0 0.011,-0.001 0.011,-0.002 -0.029,-0.31 -0.038,-0.619 -0.024,-0.93 0,0 -0.104,0.017 -0.114,0.031 -3.255,4.935 -0.984,12.297 2.359,16.547 2.302,2.924 5.854,2.8 9.031,1.744 0.057,-0.02 0.108,-0.045 0.165,-0.065 v -0.634 z" />
		</g>
		<g
   id="g212">
			<path
   style="fill:#5e493f"
   inkscape:connector-curvature="0"
   id="path214"
   d="m 467.848,288.631 c -4.135,-0.683 -8.447,0.248 -12.479,1.703 -0.205,0.073 -0.127,0.38 0.092,0.328 2.9,-0.672 5.654,-1.694 8.65,-1.943 1.251,-0.105 2.508,-0.006 3.736,0.243 v -0.331 z" />
		</g>
		<g
   id="g216">
			<path
   style="fill:#5e493f"
   inkscape:connector-curvature="0"
   id="path218"
   d="m 467.848,305.554 c -0.64,-0.375 -1.251,-0.794 -1.815,-1.248 -2.401,-1.935 -4.197,-4.569 -5.808,-7.168 -1.352,-2.18 -4.266,-4.879 -3.925,-7.658 0.017,-0.138 -0.207,-0.162 -0.237,-0.032 -0.713,2.858 2.415,5.692 3.778,7.916 1.903,3.101 4.101,6.09 7.162,8.136 0.274,0.184 0.557,0.353 0.845,0.513 v -0.459 z" />
		</g>
		<g
   id="g220">
			<path
   style="fill:#5e493f"
   inkscape:connector-curvature="0"
   id="path222"
   d="m 467.848,277.53 c -0.932,2.706 -2.42,5.348 -4.244,7.538 -1.857,2.231 -4.201,4.034 -6.493,5.788 -0.175,0.133 -0.016,0.433 0.177,0.303 4.673,-3.148 8.411,-7.136 10.561,-12.27 v -1.359 z" />
			<path
   style="fill:#5e493f"
   inkscape:connector-curvature="0"
   id="path224"
   d="m 451.58,274.573 c 0.978,-4.65 5.285,-9.041 10.179,-9.289 2.601,-0.133 4.536,1.454 5.885,3.525 0.08,0.125 0.134,0.257 0.204,0.384 v -1.007 c -1.194,-1.861 -3.005,-3.14 -5.234,-3.404 -4.612,-0.544 -9.265,3.547 -10.865,7.58 -2.537,6.397 1.111,12.166 3.594,17.925 0.037,0.089 0.188,0.024 0.155,-0.066 -1.785,-5.079 -5.096,-10.048 -3.918,-15.648 z" />
		</g>
		<g
   id="g226">
			<path
   style="fill:#5e493f"
   inkscape:connector-curvature="0"
   id="path228"
   d="m 455.002,288.914 c -1.564,-2.151 -2.739,-4.238 -4.875,-5.914 -1.911,-1.498 -4.202,-2.525 -6.605,-2.879 -4.177,-0.613 -8.646,1.866 -9.179,6.301 -0.568,4.744 2.931,8.112 7.323,9.078 5.352,1.177 10.091,-1.372 14.162,-4.588 0.202,-0.16 -0.061,-0.494 -0.272,-0.353 -1.831,1.222 -3.61,2.519 -5.613,3.455 -2.105,0.985 -4.432,1.295 -6.733,1.127 -4.452,-0.327 -8.526,-3.349 -8.363,-8.104 0.171,-4.977 5.316,-7.115 9.63,-6.206 2.168,0.455 4.177,1.599 5.879,2.988 1.809,1.476 3.009,3.446 4.472,5.229 0.08,0.098 0.248,-0.032 0.174,-0.134 l 0,0 z" />
		</g>
	</g>
	<g
   style="opacity:0.26000001"
   id="g230">
		<path
   style="fill:#f5a99a"
   inkscape:connector-curvature="0"
   id="path232"
   d="m 463.57,0 h -19.503 c 0.196,1.909 1.188,3.883 3.012,5.701 5.026,5.012 12.437,7.239 19.131,8.946 l 0.51,-0.508 C 466.311,10.797 466.226,7.357 465.143,4.146 464.686,2.791 464.168,1.377 463.57,0 z" />
		<path
   style="fill:#f5a99a"
   inkscape:connector-curvature="0"
   id="path234"
   d="m 466.466,14.393 c -6.917,-0.995 -25.904,2.274 -22.672,13.153 3.051,10.272 16.094,1.837 19.811,-3.015 2.213,-2.886 2.801,-5.501 2.605,-9.118" />
		<path
   style="fill:#f5a99a"
   inkscape:connector-curvature="0"
   id="path236"
   d="m 467.848,17.474 c -0.973,-0.429 -1.952,-0.844 -2.93,-1.246 -1.576,6.342 -2.725,15.605 2.93,19.336 v -18.09 z" />
		<path
   style="fill:#f5a99a"
   inkscape:connector-curvature="0"
   id="path238"
   d="m 467.848,12.781 c -0.583,0.765 -1.131,1.486 -1.638,2.122 l -4.075,-0.256 c 2.035,0.73 3.898,1.374 5.713,1.891 v -3.757 z" />
		<path
   style="fill:#e97887"
   inkscape:connector-curvature="0"
   id="path240"
   d="m 462.711,0 h -7.202 c -2.497,1.631 -2.542,5.107 -0.204,7.801 2.669,3.077 7.107,6.524 11.161,7.357 L 466.21,13.63 C 467.242,9.196 466.874,2.435 462.711,0 z" />
		<path
   style="fill:#e97887"
   inkscape:connector-curvature="0"
   id="path242"
   d="m 467.848,10.643 c -0.753,1.14 -1.335,2.263 -1.638,3.241 l 1.02,0.255 c 0.187,0.044 0.396,0.091 0.618,0.139 v -3.635 z" />
		<path
   style="fill:#e97887"
   inkscape:connector-curvature="0"
   id="path244"
   d="m 467.848,16.709 c -0.656,-0.437 -1.318,-0.861 -1.976,-1.279 -1.481,4.764 -2.752,11.62 1.283,15.629 0.233,0.232 0.463,0.428 0.692,0.609 V 16.709 z" />
		<path
   style="fill:#e97887"
   inkscape:connector-curvature="0"
   id="path246"
   d="m 467.848,15.341 c -2.933,-0.456 -5.969,-0.942 -8.895,-0.766 -4.456,0.268 -12.696,5.12 -6.167,9.363 5.545,3.602 11.85,-4.234 14.698,-8.271 h 0.363 v -0.326 z" />
		<path
   style="fill:#5e493f"
   inkscape:connector-curvature="0"
   id="path248"
   d="m 467.848,13.533 c -0.309,-0.253 -0.698,-0.413 -1.128,-0.413 -0.984,0 -1.782,0.798 -1.782,1.783 0,0.985 0.798,1.783 1.782,1.783 0.43,0 0.819,-0.159 1.128,-0.413 v -2.74 z" />
		<g
   id="g250">
			<path
   style="fill:#5e493f"
   inkscape:connector-curvature="0"
   id="path252"
   d="m 465.185,13.886 c 1.038,0.715 -1.134,-0.346 -1.346,-0.456 -1.091,-0.564 -2.166,-1.053 -3.21,-1.727 C 458.674,10.444 457.088,8.67 455.78,6.768 454.341,4.674 453.545,2.25 453.85,0 h -1.798 c -0.289,1.412 -0.124,2.987 0.559,4.609 2.124,5.047 7.683,9.611 13.291,9.801 0.022,10e-4 0.101,-0.038 0.112,-0.032 -0.282,-0.151 -0.554,-0.315 -0.816,-0.496 -0.004,-0.002 -0.01,0.005 -0.013,0.004 z" />
			<path
   style="fill:#5e493f"
   inkscape:connector-curvature="0"
   id="path254"
   d="m 467.848,0 h -1.823 c 0.153,0.281 0.295,0.557 0.409,0.819 1.668,3.842 1.124,8.616 0.354,12.606 -0.161,0.052 -0.276,0.102 -0.266,0.139 0.064,0.236 0.129,0.475 0.192,0.711 0.014,0.042 0.998,-0.15 1.027,-0.274 0.035,-0.147 0.07,-0.294 0.105,-0.441 V 0 z" />
		</g>
		<g
   id="g256">
			<path
   style="fill:#5e493f"
   inkscape:connector-curvature="0"
   id="path258"
   d="m 465.817,16.785 c 0.875,-0.945 -0.543,1.15 -0.673,1.337 -0.605,0.866 -1.143,1.759 -1.786,2.602 -1.457,1.911 -3.265,3.418 -5.299,4.67 -4.46,2.742 -9.753,1.696 -11.108,-3.575 -0.972,-3.779 1.593,-7.262 4.845,-8.799 2.244,-1.063 4.939,-0.485 7.26,-0.094 1.007,0.171 5.93,1.064 5.842,1.961 0.011,0.003 0.021,0.007 0.03,0.01 0.313,0.018 0.629,0.038 0.941,0.056 0.256,0.016 0.873,-0.321 0.983,-0.289 -0.838,-0.247 -1.665,-1.096 -2.648,-1.427 -1.719,-0.578 -3.446,-0.961 -5.227,-1.284 -2.037,-0.369 -4.175,-0.004 -6.152,0.487 -4.651,1.156 -8.568,4.048 -8.121,9.321 0.443,5.221 6.107,6.451 10.248,5.225 2.416,-0.717 4.577,-1.759 6.599,-3.285 2.142,-1.618 5.02,-4.744 4.935,-7.612 -10e-4,-0.002 -0.104,0.018 -0.114,0.032 -0.188,0.223 -0.375,0.446 -0.564,0.667 0.001,0 0.007,0 0.009,-0.003 l 0,0 z" />
		</g>
		<g
   id="g260">
			<path
   style="fill:#5e493f"
   inkscape:connector-curvature="0"
   id="path262"
   d="m 467.848,8.83 c -0.3,0.654 -0.579,1.318 -0.847,1.975 -0.554,1.349 -0.442,2.769 -0.798,3.855 0.026,-0.086 0.89,-0.112 1.026,-0.276 0.253,-0.304 0.447,-0.691 0.618,-1.115 V 8.83 z" />
		</g>
		<g
   id="g264">
			<path
   style="fill:#5e493f"
   inkscape:connector-curvature="0"
   id="path266"
   d="m 467.848,26.858 c -0.574,-1.609 -0.884,-3.311 -1.02,-5.008 -0.083,-1.027 -0.074,-2.067 0.037,-3.091 0.021,-0.199 -0.046,-3.012 0.096,-1.667 0,0 0.011,-0.002 0.011,-0.003 -0.03,-0.31 -0.037,-0.619 -0.024,-0.929 0,0 -0.104,0.017 -0.115,0.032 -2.792,4.232 -1.514,10.247 1.016,14.555 v -3.889 z" />
		</g>
		<g
   id="g268">
			<path
   style="fill:#5e493f"
   inkscape:connector-curvature="0"
   id="path270"
   d="m 467.848,17.938 c -0.687,-1.143 -1.155,-2.336 -1.006,-3.545 0.016,-0.137 -0.207,-0.162 -0.239,-0.032 -0.373,1.5 0.313,2.994 1.245,4.396 v -0.819 z" />
		</g>
		<g
   id="g272">
			<path
   style="fill:#5e493f"
   inkscape:connector-curvature="0"
   id="path274"
   d="m 462.038,0 h -0.469 c -0.778,5.332 2.188,10.271 4.313,15.201 0.038,0.088 0.188,0.024 0.156,-0.066 -1.728,-4.923 -4.88,-9.743 -4,-15.135 z" />
		</g>
		<g
   id="g276">
			<path
   style="fill:#5e493f"
   inkscape:connector-curvature="0"
   id="path278"
   d="m 465.543,13.828 c -1.563,-2.151 -2.739,-4.238 -4.875,-5.915 -1.91,-1.497 -4.201,-2.525 -6.605,-2.878 -4.178,-0.613 -8.647,1.866 -9.18,6.301 -0.568,4.744 2.931,8.111 7.325,9.077 5.351,1.177 10.089,-1.372 14.161,-4.587 0.201,-0.16 -0.062,-0.495 -0.272,-0.354 -1.831,1.222 -3.609,2.519 -5.613,3.455 -2.105,0.986 -4.431,1.296 -6.733,1.128 -4.452,-0.328 -8.525,-3.349 -8.363,-8.104 0.17,-4.977 5.315,-7.115 9.63,-6.206 2.167,0.456 4.178,1.599 5.879,2.988 1.809,1.476 3.01,3.447 4.472,5.23 0.079,0.097 0.248,-0.034 0.174,-0.135 l 0,0 z" />
		</g>
	</g>
	<g
   style="opacity:0.26000001"
   id="g280">
		<path
   style="fill:#f5a99a"
   inkscape:connector-curvature="0"
   id="path282"
   d="m 467.848,435.572 c -4.739,-11.008 -12.271,-20.804 -25.699,-14.672 -11.434,5.223 -13.297,16.06 -4.456,24.871 7.995,7.972 19.298,12.079 30.155,15.063 v -25.262 z" />
		<path
   style="fill:#f5a99a"
   inkscape:connector-curvature="0"
   id="path284"
   d="m 467.848,461.313 c -8.684,0.041 -21.26,2.328 -29.236,7.687 h 29.236 v -7.687 z" />
		<path
   style="fill:#e97887"
   inkscape:connector-curvature="0"
   id="path286"
   d="m 467.848,436.51 c -2.218,-1.892 -5.188,-2.99 -9.094,-2.805 -9.771,0.462 -11.68,9.422 -6.062,15.895 3.738,4.312 9.387,9.015 15.155,11.654 V 436.51 z" />
		<path
   style="fill:#e97887"
   inkscape:connector-curvature="0"
   id="path288"
   d="m 467.848,462.268 c -2.853,-0.314 -5.706,-0.483 -8.503,-0.314 -4.561,0.274 -11.292,3.182 -14.217,7.047 h 22.72 v -6.733 z" />
		<g
   id="g290">
			<path
   style="fill:#5e493f"
   inkscape:connector-curvature="0"
   id="path292"
   d="m 467.848,459.657 c -1.849,-0.942 -3.672,-1.796 -5.445,-2.94 -3.566,-2.297 -6.459,-5.531 -8.844,-8.999 -4.519,-6.577 -5.603,-14.944 1.156,-20.387 4.455,-3.584 9.397,-1.361 13.133,2.262 v -3.775 c -3.687,-1.387 -7.936,-1.218 -11.938,0.089 -8.033,2.624 -11.469,9.94 -8.131,17.874 3.344,7.946 11.358,15.223 20.068,17.29 v -1.414 z" />
		</g>
		<g
   id="g294">
			<path
   style="fill:#5e493f"
   inkscape:connector-curvature="0"
   id="path296"
   d="m 467.848,459.182 c -2.783,-0.866 -5.58,-1.489 -8.458,-2.011 -3.714,-0.672 -7.612,-0.007 -11.22,0.89 -6.491,1.613 -12.186,5.091 -14.14,10.939 h 3.487 c 1.19,-4.325 4.686,-7.948 8.777,-9.883 4.091,-1.938 9.008,-0.884 13.237,-0.172 1.217,0.207 5.565,0.993 8.315,1.977 v -1.74 z" />
		</g>
		<g
   id="g298">
			<path
   style="fill:#5e493f"
   inkscape:connector-curvature="0"
   id="path300"
   d="m 467.848,452.163 c -2.295,-5.684 -4.038,-11.488 -2.727,-17.724 0.486,-2.309 1.439,-4.57 2.727,-6.663 v -1.773 c -1.002,1.427 -1.829,2.917 -2.421,4.406 -3.288,8.293 -0.874,16.007 2.421,23.546 v -1.792 z" />
		</g>
		<g
   id="g302">
			<path
   style="fill:#5e493f"
   inkscape:connector-curvature="0"
   id="path304"
   d="m 467.848,466.603 c -1.306,0.845 -2.631,1.66 -4.003,2.397 h 2.06 c 0.656,-0.373 1.304,-0.77 1.943,-1.177 v -1.22 z" />
			<path
   style="fill:#5e493f"
   inkscape:connector-curvature="0"
   id="path306"
   d="m 467.848,455.61 c -1.529,-2.097 -3.169,-4.073 -5.376,-5.805 -3.483,-2.729 -7.662,-4.604 -12.045,-5.25 -7.617,-1.116 -15.768,3.402 -16.738,11.491 -0.657,5.49 1.677,9.963 5.515,12.953 h 1.745 c -3.888,-2.546 -6.521,-6.611 -6.343,-11.833 0.313,-9.073 9.693,-12.973 17.562,-11.316 3.953,0.83 7.617,2.916 10.72,5.448 1.927,1.573 3.475,3.457 4.961,5.398 v -1.086 z" />
		</g>
	</g>
	<g
   style="opacity:0.26000001"
   id="g308">
		<path
   style="fill:#f5a99a"
   inkscape:connector-curvature="0"
   id="path310"
   d="M 8.809,444.184 C 6.739,438.049 3.989,431.257 0,426.48 v 33.811 c 3.604,1.156 7.233,2.145 10.756,3.043 l 0.93,-0.928 C 10.938,456.311 10.783,450.04 8.809,444.184 z" />
		<path
   style="fill:#f5a99a"
   inkscape:connector-curvature="0"
   id="path312"
   d="M 11.222,462.869 C 8.368,462.458 4.384,462.45 0,462.907 V 469 h 10.752 c 0.087,-1.349 0.085,-2.761 0.003,-4.272 l 0.467,-1.859 z" />
		<path
   style="fill:#f5a99a"
   inkscape:connector-curvature="0"
   id="path314"
   d="m 14.953,469 c -2.163,-0.98 -4.366,-1.884 -6.556,-2.784 -0.223,0.899 -0.44,1.828 -0.649,2.784 h 7.205 z" />
		<path
   style="fill:#f5a99a"
   inkscape:connector-curvature="0"
   id="path316"
   d="m 33.351,469 c 0.368,-0.029 0.729,-0.052 1.104,-0.089 8.04,-0.805 12.045,-3.6 16.489,-10.588 3.854,-6.063 4.869,-14.802 -3.045,-18.306 -15.968,-7.063 -29.231,13.828 -37.144,23.781 l -7.431,-0.466 c 7.984,2.866 14.525,5.057 21.809,5.667 h 8.218 z" />
		<path
   style="fill:#e97887"
   inkscape:connector-curvature="0"
   id="path318"
   d="m 0,435.101 v 23.92 c 3.583,2.496 7.492,4.479 11.222,5.244 l -0.466,-2.786 C 12.951,452.046 11.701,436.805 0,435.101 z" />
		<path
   style="fill:#e97887"
   inkscape:connector-curvature="0"
   id="path320"
   d="m 10.756,461.942 c 3.316,-10.732 24.158,-30.97 30.487,-10.798 5.251,16.73 -20.834,13.124 -28.63,11.261" />
		<path
   style="fill:#e97887"
   inkscape:connector-curvature="0"
   id="path322"
   d="m 16.481,469 c -2.066,-1.499 -4.216,-2.888 -6.34,-4.24 -0.416,1.336 -0.819,2.757 -1.182,4.24 h 7.522 z" />
		<path
   style="fill:#e97887"
   inkscape:connector-curvature="0"
   id="path324"
   d="M 0,463.136 V 469 h 10.246 c 1.075,-1.366 2.03,-2.67 2.833,-3.807 h 4.644 C 11.994,464.402 5.909,463.159 0,463.136 z" />
		<circle
   d="m 14.935,463.79901 c 0,1.79493 -1.455074,3.25 -3.25,3.25 -1.794925,0 -3.2499996,-1.45507 -3.2499996,-3.25 0,-1.79492 1.4550746,-3.25 3.2499996,-3.25 1.794926,0 3.25,1.45508 3.25,3.25 z"
   style="fill:#5e493f"
   sodipodi:ry="3.25"
   sodipodi:rx="3.25"
   sodipodi:cy="463.79901"
   sodipodi:cx="11.685"
   id="circle326"
   r="3.25"
   cy="463.79901"
   cx="11.685" />
		<g
   id="g328">
			<path
   style="fill:#5e493f"
   inkscape:connector-curvature="0"
   id="path330"
   d="m 8.887,461.944 c 1.892,1.306 -2.069,-0.631 -2.457,-0.831 -1.988,-1.03 -3.948,-1.92 -5.851,-3.148 -0.198,-0.127 -0.386,-0.269 -0.58,-0.4 v 2.469 c 3.222,1.697 6.7,2.75 10.192,2.868 0.041,0.002 0.185,-0.07 0.205,-0.061 -0.513,-0.274 -1.007,-0.574 -1.488,-0.901 -0.005,-0.006 -0.018,0.006 -0.021,0.004 z" />
			<path
   style="fill:#5e493f"
   inkscape:connector-curvature="0"
   id="path332"
   d="M 12.388,431.999 C 9.347,427.703 4.774,425.982 0,426.11 v 0.975 c 4.941,1.385 9.41,6.996 11.162,11.032 3.04,7.005 2.052,15.711 0.65,22.988 -0.295,0.095 -0.507,0.186 -0.488,0.253 0.117,0.432 0.236,0.867 0.354,1.298 0.022,0.077 1.817,-0.275 1.871,-0.501 0.091,-0.378 0.182,-0.758 0.272,-1.138 0.29,-0.102 0.518,-0.22 0.573,-0.356 3.69,-9.155 3.83,-20.406 -2.006,-28.662 z" />
		</g>
		<g
   id="g334">
			<path
   style="fill:#5e493f"
   inkscape:connector-curvature="0"
   id="path336"
   d="M 7.098,460.763 C 4.75,459.973 2.397,459.383 0,458.891 v 1.73 c 3.286,0.658 8.483,1.901 8.361,3.15 0.021,0.005 0.037,0.012 0.056,0.017 0.573,0.033 1.147,0.069 1.718,0.104 0.467,0.028 1.592,-0.587 1.793,-0.527 -1.529,-0.451 -3.038,-1.999 -4.83,-2.602 z" />
		</g>
		<g
   id="g338">
			<path
   style="fill:#5e493f"
   inkscape:connector-curvature="0"
   id="path340"
   d="m 15.112,464.616 c -0.529,0.026 -1.055,0.045 -1.583,0.054 -0.032,10e-4 -0.198,0.063 -0.206,0.057 6.076,4.718 17.101,1.706 23.631,-0.697 8.757,-3.229 16.938,-11.634 11.132,-21.191 -4.476,-7.367 -14.436,-6.841 -21.266,-3.642 -4.53,2.118 -8.154,5.263 -10.879,9.448 -1.549,2.375 -2.676,5.068 -3.745,7.682 -1.009,2.46 -0.805,5.05 -1.455,7.031 0.049,-0.159 1.624,-0.204 1.872,-0.504 1.458,-1.752 1.908,-4.913 3.004,-7.445 1.492,-3.451 3.526,-6.88 5.762,-9.902 2.848,-3.854 7.739,-7.622 12.649,-7.462 3.645,0.118 7.121,2.352 9.509,4.955 4.439,4.834 3.384,12.04 -0.849,16.514 -4.671,4.938 -12.394,6.702 -18.87,6.62 -2.021,-0.024 -3.967,-0.431 -5.966,-0.648 -0.438,-0.05 -5.145,-0.737 -2.76,-0.861 0.004,-0.002 0.017,-0.009 0.02,-0.009 l 0,0 z" />
		</g>
		<g
   id="g342">
			<path
   style="fill:#5e493f"
   inkscape:connector-curvature="0"
   id="path344"
   d="m 14.641,465.22 c 3.219,0.943 6.425,2.178 9.417,3.78 h 5.919 c -4.339,-2.467 -9.266,-4.047 -13.746,-4.79 -0.177,-0.029 -0.605,0.02 -1.063,0.112 -0.235,-0.087 -0.47,-0.174 -0.707,-0.261 -0.363,-0.133 -1.745,0.613 -1.869,0.503 0.287,0.255 0.575,0.513 0.862,0.769 0.122,0.107 0.644,0.028 1.187,-0.113 z" />
		</g>
		<g
   id="g346">
			<path
   style="fill:#5e493f"
   inkscape:connector-curvature="0"
   id="path348"
   d="m 10.376,465.029 c 5.29,-1.229 10.31,-3.09 15.772,-3.546 4.891,-0.409 9.817,0.836 14.191,2.979 2.415,1.186 4.659,2.72 6.64,4.538 h 1.206 c -1.879,-1.806 -4.026,-3.348 -6.269,-4.596 -10.03,-5.572 -21.378,-3.706 -31.708,0.024 -0.374,0.135 -0.23,0.693 0.168,0.601 z" />
		</g>
		<g
   id="g350">
			<path
   style="fill:#5e493f"
   inkscape:connector-curvature="0"
   id="path352"
   d="m 13.551,469 c -1.143,-1.982 -1.9,-4.044 -1.644,-6.131 0.029,-0.25 -0.377,-0.295 -0.436,-0.057 -0.522,2.092 0.094,4.178 1.169,6.188 h 0.911 z" />
		</g>
		<g
   id="g354">
			<path
   style="fill:#5e493f"
   inkscape:connector-curvature="0"
   id="path356"
   d="m 10.442,464.222 c -3.252,-9.26 -9.292,-18.32 -7.144,-28.534 1.784,-8.478 9.639,-16.486 18.561,-16.937 4.744,-0.242 8.272,2.651 10.73,6.429 3.047,4.678 2.161,10.623 0.491,15.602 -1.691,5.041 -4.461,9.97 -7.855,14.046 -3.388,4.067 -7.662,7.356 -11.843,10.554 -0.318,0.243 -0.027,0.788 0.322,0.553 9.686,-6.526 17.18,-15.021 20.706,-26.325 1.546,-4.962 1.621,-10.309 -1.019,-14.897 -2.16,-3.765 -5.641,-6.362 -9.973,-6.875 -8.412,-0.994 -16.896,6.468 -19.814,13.822 -4.625,11.664 2.028,22.183 6.553,32.686 0.07,0.16 0.343,0.043 0.285,-0.124 l 0,0 z" />
		</g>
		<g
   id="g358">
			<path
   style="fill:#5e493f"
   inkscape:connector-curvature="0"
   id="path360"
   d="M 9.54,461.839 C 6.687,457.916 4.544,454.112 0.65,451.054 0.438,450.889 0.217,450.738 0.001,450.578 v 1.14 c 0.36,0.271 0.718,0.546 1.064,0.83 3.297,2.692 5.487,6.286 8.154,9.538 0.148,0.177 0.455,-0.063 0.321,-0.247 z" />
			<path
   style="fill:#5e493f"
   inkscape:connector-curvature="0"
   id="path362"
   d="m 6.141,469 c 1.689,-1.082 3.326,-2.269 4.905,-3.516 0.368,-0.291 -0.111,-0.903 -0.497,-0.646 -2.105,1.405 -4.182,2.848 -6.338,4.161 h 1.93 z" />
		</g>
	</g>
	<g
   style="opacity:0.26000001"
   id="g364">
		<path
   style="fill:#f5a99a"
   inkscape:connector-curvature="0"
   id="path366"
   d="m 387.443,313.416 c -12.207,-3.113 -25.72,-7.173 -34.887,-16.313 -8.841,-8.812 -6.977,-19.648 4.457,-24.871 16.415,-7.496 24.021,8.809 28.483,22.035 1.974,5.856 2.129,12.126 2.875,18.222" />
		<path
   style="fill:#f5a99a"
   inkscape:connector-curvature="0"
   id="path368"
   d="m 387.909,312.952 c -12.612,-1.813 -47.236,4.148 -41.342,23.984 5.563,18.73 29.348,3.351 36.126,-5.498 4.033,-5.263 5.105,-10.032 4.75,-16.627" />
		<path
   style="fill:#f5a99a"
   inkscape:connector-curvature="0"
   id="path370"
   d="m 385.587,314.348 c -3.666,13.668 -7.177,37.128 12.43,39.941 20.731,2.971 16.615,-17.068 6.598,-26.898 -5.803,-5.692 -13.496,-8.594 -20.888,-11.65" />
		<path
   style="fill:#f5a99a"
   inkscape:connector-curvature="0"
   id="path372"
   d="m 387.443,313.881 c 7.912,-9.951 21.175,-30.845 37.144,-23.779 7.914,3.503 6.899,12.242 3.046,18.304 -4.444,6.988 -8.45,9.783 -16.49,10.589 -11.57,1.153 -19.925,-1.555 -31.13,-5.578" />
		<path
   style="fill:#e97887"
   inkscape:connector-curvature="0"
   id="path374"
   d="m 387.909,314.348 c -7.392,-1.519 -15.486,-7.806 -20.354,-13.416 -5.617,-6.473 -3.709,-15.433 6.063,-15.895 14.553,-0.689 16.199,16.322 13.825,26.524" />
		<path
   style="fill:#e97887"
   inkscape:connector-curvature="0"
   id="path376"
   d="m 387.443,312.024 c 3.315,-10.731 24.159,-30.969 30.487,-10.797 5.25,16.729 -20.835,13.125 -28.631,11.262" />
		<path
   style="fill:#e97887"
   inkscape:connector-curvature="0"
   id="path378"
   d="m 386.979,314.348 c -2.766,8.699 -5.308,21.547 2.188,28.995 10.371,10.306 19.046,-7.526 11.908,-16.871 -3.935,-5.15 -9.641,-8.697 -15.025,-12.124" />
		<path
   style="fill:#e97887"
   inkscape:connector-curvature="0"
   id="path380"
   d="m 389.766,315.275 c -5.193,7.36 -16.691,21.651 -26.801,15.082 -11.905,-7.735 3.118,-16.583 11.245,-17.072 6.67,-0.402 13.667,1.09 20.2,1.99" />
		<path
   style="fill:#5e493f"
   inkscape:connector-curvature="0"
   id="path382"
   d="m 391.622,313.881 c 0,1.797 -1.453,3.254 -3.25,3.254 -1.795,0 -3.25,-1.457 -3.25,-3.254 0,-1.794 1.455,-3.25 3.25,-3.25 1.797,0 3.25,1.456 3.25,3.25 z" />
		<g
   id="g384">
			<path
   style="fill:#5e493f"
   inkscape:connector-curvature="0"
   id="path386"
   d="m 385.574,312.026 c 1.892,1.306 -2.068,-0.629 -2.457,-0.831 -1.988,-1.029 -3.948,-1.92 -5.851,-3.146 -3.565,-2.297 -6.459,-5.531 -8.844,-8.999 -4.518,-6.576 -5.603,-14.944 1.157,-20.386 7.203,-5.797 15.686,3.586 18.269,9.536 3.076,7.09 2.029,15.92 0.603,23.248 0.857,-0.241 1.716,-0.482 2.572,-0.724 -0.159,0.002 -0.323,0.004 -0.483,0.008 -0.267,0.002 -2.59,0.487 -2.529,0.71 0.118,0.431 0.237,0.866 0.354,1.297 0.022,0.078 1.816,-0.276 1.871,-0.5 0.119,-0.497 0.237,-0.994 0.356,-1.49 -0.843,0.237 -1.688,0.476 -2.527,0.712 0.147,0.003 0.293,0.004 0.441,0.006 0.441,0.007 2.395,-0.274 2.574,-0.723 3.69,-9.155 3.83,-20.407 -2.006,-28.662 -4.294,-6.067 -11.645,-7.017 -18.3,-4.844 -8.034,2.624 -11.47,9.94 -8.131,17.874 3.872,9.203 14.006,17.524 24.234,17.871 0.041,0.002 0.185,-0.069 0.205,-0.059 -0.513,-0.275 -1.007,-0.576 -1.487,-0.903 -0.005,-0.004 -0.018,0.008 -0.021,0.005 l 0,0 z" />
		</g>
		<g
   id="g388">
			<path
   style="fill:#5e493f"
   inkscape:connector-curvature="0"
   id="path390"
   d="m 386.727,317.314 c 1.597,-1.724 -0.988,2.099 -1.227,2.438 -1.104,1.581 -2.085,3.209 -3.26,4.744 -2.653,3.484 -5.95,6.234 -9.66,8.517 -8.135,5 -17.783,3.092 -20.255,-6.52 -1.773,-6.892 2.903,-13.241 8.834,-16.044 4.092,-1.938 9.008,-0.885 13.237,-0.173 1.836,0.313 10.812,1.941 10.652,3.576 0.02,0.005 0.037,0.013 0.055,0.019 0.573,0.031 1.148,0.069 1.719,0.102 0.467,0.03 1.592,-0.586 1.793,-0.526 -1.529,-0.45 -3.038,-1.999 -4.83,-2.602 -3.137,-1.056 -6.285,-1.754 -9.53,-2.342 -3.714,-0.673 -7.613,-0.008 -11.22,0.889 -8.482,2.106 -15.626,7.382 -14.809,16.997 0.809,9.519 11.136,11.762 18.686,9.527 4.409,-1.307 8.349,-3.207 12.034,-5.99 3.906,-2.951 9.153,-8.652 9,-13.88 -0.002,-0.003 -0.194,0.032 -0.21,0.057 -0.346,0.406 -0.685,0.813 -1.031,1.219 0.006,-0.003 0.018,-0.003 0.022,-0.008 l 0,0 z" />
		</g>
		<g
   id="g392">
			<path
   style="fill:#5e493f"
   inkscape:connector-curvature="0"
   id="path394"
   d="m 391.8,314.698 c -0.529,0.027 -1.055,0.045 -1.584,0.054 -0.032,10e-4 -0.198,0.063 -0.205,0.059 6.076,4.717 17.102,1.704 23.632,-0.698 8.757,-3.229 16.937,-11.634 11.131,-21.192 -4.476,-7.366 -14.436,-6.841 -21.266,-3.642 -4.53,2.12 -8.153,5.264 -10.879,9.45 -1.551,2.374 -2.677,5.068 -3.745,7.68 -1.01,2.462 -0.806,5.051 -1.455,7.031 0.049,-0.159 1.624,-0.204 1.871,-0.503 1.457,-1.752 1.908,-4.913 3.005,-7.445 1.492,-3.452 3.525,-6.88 5.761,-9.902 2.849,-3.855 7.739,-7.622 12.649,-7.461 3.645,0.118 7.121,2.35 9.509,4.953 4.439,4.834 3.384,12.041 -0.849,16.514 -4.671,4.939 -12.394,6.703 -18.869,6.62 -2.021,-0.024 -3.968,-0.431 -5.967,-0.647 -0.438,-0.05 -5.145,-0.737 -2.76,-0.862 0.004,-0.002 0.017,-0.009 0.021,-0.009 l 0,0 z" />
		</g>
		<g
   id="g396">
			<path
   style="fill:#5e493f"
   inkscape:connector-curvature="0"
   id="path398"
   d="m 388.833,317.868 c -0.057,-0.563 -0.07,-1.127 -0.047,-1.694 0,0 -0.189,0.032 -0.209,0.058 -5.934,8.998 -1.792,22.425 4.304,30.174 4.196,5.33 10.675,5.105 16.468,3.179 7.798,-2.589 10.875,-11.096 8.271,-18.496 -3.467,-9.848 -15.125,-15.205 -24.701,-16.796 -0.434,-0.072 -2.366,0.31 -2.575,0.726 -0.066,0.132 -0.131,0.267 -0.201,0.397 0.862,-0.23 1.725,-0.46 2.583,-0.689 -0.525,-0.193 -1.048,-0.389 -1.576,-0.58 -0.362,-0.135 -1.745,0.613 -1.868,0.503 0.286,0.254 0.574,0.512 0.861,0.767 0.263,0.233 2.404,-0.393 2.583,-0.689 0.084,-0.14 0.167,-0.274 0.248,-0.414 -0.856,0.242 -1.715,0.483 -2.572,0.724 7.814,2.153 15.682,5.989 20.663,12.564 4.746,6.266 4.812,14.696 -0.933,20.315 -7.381,7.216 -15.851,-3.883 -18.668,-9.717 -1.754,-3.634 -2.572,-7.651 -2.894,-11.646 -0.152,-1.874 -0.135,-3.77 0.068,-5.637 0.038,-0.363 -0.084,-5.493 0.174,-3.042 0,-0.002 0.021,-0.004 0.021,-0.007 l 0,0 z" />
		</g>
		<g
   id="g400">
			<path
   style="fill:#5e493f"
   inkscape:connector-curvature="0"
   id="path402"
   d="m 431.316,334.844 c 0.941,-3.81 -0.836,-8.16 -2.81,-11.345 -2.373,-3.817 -6.009,-6.845 -9.903,-9.012 -10.03,-5.573 -21.378,-3.706 -31.708,0.024 -0.374,0.135 -0.229,0.692 0.168,0.6 5.29,-1.228 10.31,-3.09 15.772,-3.546 4.89,-0.408 9.817,0.838 14.191,2.979 3.932,1.931 7.42,4.782 10.039,8.287 1.276,1.703 2.228,3.623 2.905,5.635 0.701,2.085 0.663,4.175 0.912,6.316 0.026,0.234 0.37,0.32 0.434,0.062 l 0,0 z" />
		</g>
		<g
   id="g404">
			<path
   style="fill:#5e493f"
   inkscape:connector-curvature="0"
   id="path406"
   d="m 388.159,312.895 c -1.299,5.213 4.404,10.381 6.892,14.436 3.469,5.654 7.477,11.105 13.058,14.835 4.438,2.964 9.908,4.362 15.137,3 4.759,-1.242 8.152,-5.441 8.172,-10.383 0,-0.341 -0.567,-0.438 -0.615,-0.083 -0.715,5.215 -3.506,8.813 -8.762,10.014 -5.642,1.286 -11.378,-1.243 -15.699,-4.723 -4.382,-3.53 -7.654,-8.332 -10.591,-13.071 -2.464,-3.976 -7.778,-8.898 -7.155,-13.967 0.027,-0.251 -0.379,-0.296 -0.437,-0.058 l 0,0 z" />
		</g>
		<g
   id="g408">
			<path
   style="fill:#5e493f"
   inkscape:connector-curvature="0"
   id="path410"
   d="m 387.129,314.305 c -3.252,-9.261 -9.292,-18.32 -7.144,-28.533 1.784,-8.479 9.639,-16.486 18.561,-16.938 4.745,-0.241 8.273,2.652 10.73,6.43 3.048,4.677 2.16,10.623 0.491,15.602 -1.691,5.04 -4.461,9.97 -7.855,14.047 -3.388,4.066 -7.662,7.355 -11.843,10.552 -0.318,0.244 -0.026,0.79 0.321,0.554 9.687,-6.525 17.182,-15.021 20.707,-26.326 1.546,-4.962 1.62,-10.307 -1.019,-14.896 -2.16,-3.765 -5.641,-6.361 -9.973,-6.875 -8.412,-0.994 -16.896,6.469 -19.815,13.822 -4.625,11.664 2.028,22.183 6.553,32.685 0.072,0.159 0.344,0.042 0.286,-0.124 l 0,0 z" />
		</g>
		<g
   id="g412">
			<path
   style="fill:#5e493f"
   inkscape:connector-curvature="0"
   id="path414"
   d="m 386.227,311.923 c -2.853,-3.925 -4.996,-7.729 -8.891,-10.785 -3.483,-2.73 -7.661,-4.604 -12.045,-5.25 -7.616,-1.116 -15.767,3.402 -16.738,11.491 -1.036,8.652 5.345,14.792 13.357,16.552 9.757,2.146 18.398,-2.501 25.822,-8.363 0.367,-0.292 -0.111,-0.903 -0.496,-0.645 -3.339,2.228 -6.584,4.592 -10.236,6.3 -3.84,1.796 -8.081,2.363 -12.28,2.056 -8.116,-0.597 -15.544,-6.107 -15.25,-14.779 0.312,-9.073 9.694,-12.973 17.562,-11.316 3.953,0.83 7.617,2.917 10.72,5.448 3.298,2.693 5.488,6.286 8.155,9.538 0.148,0.176 0.454,-0.063 0.32,-0.247 l 0,0 z" />
		</g>
	</g>
	<g
   style="opacity:0.26000001"
   id="g416">
		<path
   style="fill:#f5a99a"
   inkscape:connector-curvature="0"
   id="path418"
   d="m 197.346,0 c 0.739,0.924 1.548,1.837 2.449,2.735 12.574,12.539 31.113,18.109 47.86,22.379 l 1.275,-1.272 C 247.953,15.878 247.688,7.702 245.328,0 h -47.982 z" />
		<path
   style="fill:#f5a99a"
   inkscape:connector-curvature="0"
   id="path420"
   d="m 248.294,24.479 c -17.301,-2.489 -64.802,5.691 -56.717,32.904 7.631,25.697 40.264,4.597 49.563,-7.542 5.534,-7.22 7.004,-13.763 6.516,-22.812" />
		<path
   style="fill:#f5a99a"
   inkscape:connector-curvature="0"
   id="path422"
   d="m 245.108,26.393 c -5.028,18.75 -9.845,50.936 17.054,54.795 28.44,4.076 22.794,-23.417 9.051,-36.9 -7.962,-7.811 -18.516,-11.791 -28.655,-15.985" />
		<path
   style="fill:#f5a99a"
   inkscape:connector-curvature="0"
   id="path424"
   d="m 269.792,0 c -8.995,7.705 -16.543,18.718 -22.137,25.753 l -10.193,-0.639 c 15.373,5.519 26.834,9.236 42.707,7.653 11.029,-1.104 16.525,-4.939 22.621,-14.526 3.511,-5.521 5.299,-12.66 2.932,-18.242 h -35.93 z" />
		<path
   style="fill:#e97887"
   inkscape:connector-curvature="0"
   id="path426"
   d="m 247.281,0 h -30.954 c 0.521,2.708 1.872,5.484 4.045,7.988 6.675,7.697 17.782,16.323 27.921,18.405 l -0.639,-3.822 C 249.195,15.95 249.498,7.242 247.281,0 z" />
		<path
   style="fill:#e97887"
   inkscape:connector-curvature="0"
   id="path428"
   d="M 284.931,0 H 266.86 c -8.743,5.354 -16.943,15.889 -19.204,23.207 l 2.547,0.636 C 260.9,26.4 296.684,31.346 289.482,8.394 288.297,4.621 286.742,1.886 284.931,0 z" />
		<path
   style="fill:#e97887"
   inkscape:connector-curvature="0"
   id="path430"
   d="m 247.02,26.393 c -3.795,11.934 -7.282,29.56 3.001,39.778 C 264.25,80.31 276.149,55.846 266.358,43.026 260.962,35.96 253.132,31.095 245.745,26.393" />
		<path
   style="fill:#e97887"
   inkscape:connector-curvature="0"
   id="path432"
   d="m 250.842,27.667 c -7.124,10.097 -22.898,29.702 -36.768,20.691 -16.334,-10.612 4.277,-22.752 15.426,-23.422 9.152,-0.553 18.75,1.494 27.714,2.731" />
		<path
   style="fill:#5e493f"
   inkscape:connector-curvature="0"
   id="path434"
   d="m 253.39,25.753 c 0,2.464 -1.995,4.464 -4.459,4.464 -2.464,0 -4.458,-2 -4.458,-4.464 0,-2.462 1.994,-4.458 4.458,-4.458 2.464,0 4.459,1.997 4.459,4.458 z" />
		<g
   id="g436">
			<path
   style="fill:#5e493f"
   inkscape:connector-curvature="0"
   id="path438"
   d="m 245.092,23.21 c 2.595,1.79 -2.838,-0.865 -3.37,-1.142 -2.729,-1.413 -5.417,-2.634 -8.027,-4.318 C 228.803,14.601 224.834,10.164 221.562,5.406 220.375,3.679 219.365,1.861 218.567,0 h -4.933 c 0,0.001 0.001,0.003 0.001,0.004 5.312,12.625 19.216,24.042 33.248,24.519 0.057,0.002 0.254,-0.096 0.281,-0.083 -0.704,-0.376 -1.382,-0.788 -2.041,-1.238 -0.01,-0.006 -0.027,0.01 -0.031,0.008 z" />
			<path
   style="fill:#5e493f"
   inkscape:connector-curvature="0"
   id="path440"
   d="m 250.641,0 c 0.844,7.346 -0.209,15.166 -1.535,22.055 -0.414,0.132 -0.696,0.259 -0.671,0.353 0.161,0.591 0.324,1.189 0.485,1.779 0.031,0.107 2.494,-0.378 2.568,-0.687 0.125,-0.52 0.248,-1.041 0.372,-1.56 0.399,-0.14 0.711,-0.303 0.787,-0.49 2.694,-6.687 3.988,-14.187 3.422,-21.45 h -5.428 z" />
		</g>
		<g
   id="g442">
			<path
   style="fill:#5e493f"
   inkscape:connector-curvature="0"
   id="path444"
   d="m 246.674,30.464 c 2.188,-2.366 -1.357,2.877 -1.685,3.344 -1.515,2.168 -2.86,4.402 -4.471,6.508 -3.642,4.781 -8.163,8.553 -13.254,11.684 -11.159,6.861 -24.396,4.243 -27.787,-8.943 -2.434,-9.454 3.983,-18.166 12.119,-22.012 5.613,-2.659 12.358,-1.214 18.161,-0.237 2.52,0.428 14.833,2.664 14.613,4.907 0.028,0.007 0.051,0.017 0.076,0.025 0.786,0.044 1.575,0.095 2.356,0.14 0.642,0.041 2.185,-0.804 2.46,-0.722 -2.096,-0.617 -4.167,-2.742 -6.626,-3.57 -4.303,-1.447 -8.621,-2.405 -13.075,-3.212 -5.095,-0.923 -10.444,-0.011 -15.393,1.219 -11.636,2.891 -21.436,10.126 -20.315,23.319 1.11,13.059 15.277,16.136 25.635,13.07 6.047,-1.792 11.452,-4.4 16.509,-8.217 5.359,-4.049 12.56,-11.87 12.348,-19.042 -0.003,-0.005 -0.266,0.044 -0.287,0.079 -0.475,0.558 -0.94,1.115 -1.414,1.67 0.006,-0.004 0.023,-0.004 0.03,-0.01 l 0,0 z" />
		</g>
		<g
   id="g446">
			<path
   style="fill:#5e493f"
   inkscape:connector-curvature="0"
   id="path448"
   d="m 262.229,0.657 c 0.162,-0.22 0.336,-0.438 0.508,-0.657 h -4.073 c -1.414,1.521 -2.722,3.164 -3.895,4.964 -2.126,3.258 -3.671,6.954 -5.138,10.538 -1.385,3.376 -1.104,6.929 -1.996,9.646 0.067,-0.218 2.228,-0.279 2.566,-0.69 2,-2.404 2.619,-6.741 4.122,-10.214 2.049,-4.736 4.839,-9.44 7.906,-13.587 z" />
			<path
   style="fill:#5e493f"
   inkscape:connector-curvature="0"
   id="path450"
   d="m 294.644,0 c 3.608,6.396 1.86,14.546 -3.18,19.874 -6.408,6.776 -17.004,9.195 -25.887,9.083 -2.772,-0.034 -5.444,-0.592 -8.186,-0.889 -0.601,-0.068 -7.06,-1.012 -3.788,-1.183 0.007,0 0.023,-0.01 0.028,-0.01 -0.726,0.037 -1.446,0.062 -2.172,0.074 -0.044,0.002 -0.272,0.087 -0.283,0.079 8.337,6.472 23.463,2.339 32.421,-0.957 11.087,-4.087 21.486,-14.224 16.769,-26.07 h -5.722 z" />
		</g>
		<g
   id="g452">
			<path
   style="fill:#5e493f"
   inkscape:connector-curvature="0"
   id="path454"
   d="m 249.563,31.224 c -0.077,-0.774 -0.096,-1.547 -0.063,-2.326 0,0 -0.261,0.043 -0.287,0.079 -8.141,12.345 -2.459,30.766 5.903,41.395 5.757,7.314 14.645,7.005 22.593,4.363 10.697,-3.552 14.919,-15.224 11.348,-25.376 -4.756,-13.51 -20.751,-20.86 -33.889,-23.042 -0.595,-0.099 -3.245,0.424 -3.533,0.994 -0.091,0.181 -0.181,0.366 -0.276,0.546 1.183,-0.316 2.365,-0.631 3.545,-0.946 -0.721,-0.266 -1.438,-0.532 -2.163,-0.796 -0.499,-0.184 -2.395,0.841 -2.564,0.69 0.394,0.349 0.789,0.702 1.183,1.053 0.36,0.32 3.299,-0.539 3.545,-0.946 0.114,-0.191 0.228,-0.376 0.34,-0.567 -1.176,0.331 -2.354,0.663 -3.529,0.992 10.721,2.953 21.513,8.218 28.349,17.238 6.512,8.595 6.601,20.162 -1.28,27.87 -10.127,9.899 -21.745,-5.326 -25.61,-13.33 -2.408,-4.987 -3.53,-10.499 -3.97,-15.979 -0.208,-2.57 -0.186,-5.171 0.093,-7.733 0.054,-0.499 -0.114,-7.537 0.239,-4.173 -0.004,0 0.026,-0.003 0.026,-0.006 l 0,0 z" />
		</g>
		<g
   id="g456">
			<path
   style="fill:#5e493f"
   inkscape:connector-curvature="0"
   id="path458"
   d="m 307.847,54.511 c 1.289,-5.225 -1.147,-11.192 -3.857,-15.562 -3.254,-5.238 -8.24,-9.392 -13.584,-12.364 -13.761,-7.646 -29.329,-5.084 -43.502,0.034 -0.512,0.184 -0.314,0.949 0.232,0.822 7.257,-1.684 14.143,-4.239 21.637,-4.864 6.71,-0.561 13.469,1.148 19.47,4.086 5.394,2.648 10.18,6.56 13.771,11.369 1.752,2.336 3.059,4.972 3.987,7.73 0.963,2.86 0.909,5.726 1.25,8.665 0.033,0.322 0.507,0.439 0.596,0.084 l 0,0 z" />
		</g>
		<g
   id="g460">
			<path
   style="fill:#5e493f"
   inkscape:connector-curvature="0"
   id="path462"
   d="m 248.638,24.4 c -1.781,7.151 6.043,14.241 9.454,19.803 4.76,7.758 10.259,15.236 17.914,20.354 6.088,4.065 13.593,5.984 20.768,4.116 6.526,-1.704 11.184,-7.466 11.209,-14.245 0,-0.467 -0.777,-0.6 -0.843,-0.112 -0.981,7.152 -4.811,12.088 -12.021,13.735 -7.739,1.764 -15.61,-1.705 -21.537,-6.478 -6.012,-4.844 -10.502,-11.432 -14.53,-17.934 -3.381,-5.453 -10.672,-12.207 -9.816,-19.161 0.039,-0.342 -0.518,-0.404 -0.598,-0.078 l 0,0 z" />
		</g>
		<g
   id="g464">
			<path
   style="fill:#5e493f"
   inkscape:connector-curvature="0"
   id="path466"
   d="m 236.443,0 c 1.823,9.069 6.639,17.79 10.392,26.5 0.096,0.223 0.469,0.063 0.39,-0.166 C 244.166,17.626 239.313,9.047 237.51,0 h -1.067 z" />
			<path
   style="fill:#5e493f"
   inkscape:connector-curvature="0"
   id="path468"
   d="m 275.95,0 c -2.227,4.832 -5.11,9.441 -8.444,13.446 -4.647,5.58 -10.512,10.092 -16.247,14.479 -0.438,0.333 -0.037,1.082 0.441,0.757 C 262.772,21.223 271.743,11.877 277.23,0 h -1.28 z" />
		</g>
		<g
   id="g470">
			<path
   style="fill:#5e493f"
   inkscape:connector-curvature="0"
   id="path472"
   d="M 245.986,23.065 C 242.073,17.682 239.134,12.464 233.79,8.27 229.011,4.524 223.278,1.952 217.265,1.068 c -10.448,-1.531 -21.63,4.668 -22.962,15.766 -1.422,11.869 7.332,20.292 18.324,22.707 13.387,2.944 25.242,-3.432 35.427,-11.474 0.505,-0.4 -0.151,-1.24 -0.682,-0.885 -4.58,3.057 -9.031,6.301 -14.042,8.643 -5.268,2.466 -11.085,3.244 -16.846,2.821 C 205.348,37.828 195.157,30.268 195.562,18.371 195.99,5.923 208.86,0.574 219.655,2.846 c 5.422,1.14 10.449,4 14.707,7.474 4.522,3.695 7.527,8.624 11.186,13.085 0.203,0.241 0.624,-0.086 0.438,-0.34 l 0,0 z" />
		</g>
	</g>
	<g
   style="opacity:0.26000001"
   id="g474">
		<path
   style="fill:#f5a99a"
   inkscape:connector-curvature="0"
   id="path476"
   d="m 0,236.227 v 34.584 c 14.575,-3.756 10.237,-22.881 0,-34.584 z" />
		<path
   style="fill:#f5a99a"
   inkscape:connector-curvature="0"
   id="path478"
   d="M 25.461,182.996 C 16.222,178.909 7.645,181.643 0,187.197 v 35.792 c 2.257,-0.005 4.581,-0.112 7.017,-0.355 11.029,-1.104 16.525,-4.939 22.621,-14.526 5.287,-8.316 6.681,-20.305 -4.177,-25.112 z" />
		<path
   style="fill:#e97887"
   inkscape:connector-curvature="0"
   id="path480"
   d="M 16.329,198.26 C 12.994,187.63 6.72,185.188 0,187.037 v 28.848 c 10.948,-0.683 20.355,-4.793 16.329,-17.625 z" />
		<g
   id="g482">
			<path
   style="fill:#5e493f"
   inkscape:connector-curvature="0"
   id="path484"
   d="M 25.717,186.863 C 20.297,177.942 9.016,177.464 0,180.492 v 1.1 c 2.079,-0.877 4.252,-1.376 6.43,-1.305 5,0.163 9.769,3.226 13.045,6.797 6.09,6.632 4.642,16.52 -1.164,22.656 -4.65,4.917 -11.505,7.531 -18.311,8.557 v 0.766 c 3.843,-0.858 7.482,-2.035 10.445,-3.125 12.014,-4.43 23.236,-15.961 15.272,-29.075 z" />
		</g>
		<g
   id="g486">
			<path
   style="fill:#5e493f"
   inkscape:connector-curvature="0"
   id="path488"
   d="M 15.903,239.226 C 13.262,231.727 7.155,226.135 0,222.263 v 5.221 c 2.569,2.027 4.914,4.325 6.908,6.958 6.512,8.595 6.602,20.162 -1.28,27.869 -1.845,1.805 -3.74,2.756 -5.628,3.086 v 0.408 c 1.533,-0.295 3.061,-0.706 4.556,-1.203 10.696,-3.552 14.919,-15.223 11.347,-25.376 z" />
		</g>
		<g
   id="g490">
			<path
   style="fill:#5e493f"
   inkscape:connector-curvature="0"
   id="path492"
   d="M 30.837,228.816 C 27.583,223.577 22.595,219.424 17.252,216.451 11.724,213.379 5.904,211.964 0,211.691 v 0.716 c 5.235,0.296 10.395,1.824 15.09,4.122 5.394,2.648 10.179,6.56 13.771,11.369 1.751,2.335 3.058,4.971 3.987,7.73 0.963,2.86 0.909,5.727 1.25,8.666 0.034,0.32 0.506,0.438 0.595,0.083 1.291,-5.224 -1.147,-11.192 -3.856,-15.561 z" />
		</g>
		<g
   id="g494">
			<path
   style="fill:#5e493f"
   inkscape:connector-curvature="0"
   id="path496"
   d="m 33.987,244.183 c -0.981,7.152 -4.811,12.088 -12.021,13.736 -7.739,1.764 -15.609,-1.707 -21.538,-6.479 -0.146,-0.118 -0.283,-0.248 -0.429,-0.369 v 1.24 c 0.921,0.736 1.864,1.45 2.854,2.112 6.088,4.065 13.592,5.984 20.767,4.116 6.527,-1.704 11.184,-7.466 11.209,-14.244 10e-4,-0.469 -0.777,-0.601 -0.842,-0.112 z" />
		</g>
		<g
   id="g498">
			<path
   style="fill:#5e493f"
   inkscape:connector-curvature="0"
   id="path500"
   d="M 5.557,161.995 C 4.112,159.477 2.232,157.343 0,155.732 v 1.725 c 1.702,1.444 3.184,3.227 4.456,5.182 4.181,6.416 2.964,14.574 0.673,21.404 -1.286,3.833 -3.04,7.611 -5.129,11.177 v 2.076 c 2.91,-4.519 5.268,-9.454 6.954,-14.863 2.122,-6.808 2.224,-14.141 -1.397,-20.438 z" />
		</g>
	</g>
	<g
   style="opacity:0.26000001"
   id="g502">
		<path
   style="fill:#f5a99a"
   inkscape:connector-curvature="0"
   id="path504"
   d="m 467.848,77.931 c -12.251,7.69 -13.437,21.052 -2.355,32.097 0.761,0.759 1.553,1.482 2.355,2.19 V 77.931 z" />
		<path
   style="fill:#f5a99a"
   inkscape:connector-curvature="0"
   id="path506"
   d="m 467.848,141.181 c -8.521,5.314 -13.696,12.983 -10.573,23.495 2.041,6.875 5.878,10.385 10.573,11.627 v -35.122 z" />
		<g
   id="g508">
			<path
   style="fill:#5e493f"
   inkscape:connector-curvature="0"
   id="path510"
   d="m 467.848,156.323 c -1.151,-1.669 -2.075,-3.644 -2.674,-5.973 -1.311,-5.095 -0.042,-9.964 2.674,-13.979 v -4.173 c -5.506,3.982 -8.988,9.855 -8.296,18.007 0.515,6.057 3.845,9.956 8.296,12.099 v -5.981 z" />
		</g>
		<g
   id="g512">
			<path
   style="fill:#5e493f"
   inkscape:connector-curvature="0"
   id="path514"
   d="m 467.848,140.319 c -4.146,-3.497 -6.799,-8.485 -6.59,-14.656 0.188,-5.493 2.802,-9.602 6.59,-12.284 v -1.709 c -4.155,2.749 -7.192,7.005 -7.848,12.457 -0.919,7.664 2.416,13.876 7.848,17.973 v -1.781 z" />
		</g>
	</g>
</g></g>


</svg>