<?xml version="1.0" encoding="UTF-8" standalone="no"?>
<!-- Created with Inkscape (http://www.inkscape.org/) -->

<svg
   xmlns:dc="http://purl.org/dc/elements/1.1/"
   xmlns:cc="http://creativecommons.org/ns#"
   xmlns:rdf="http://www.w3.org/1999/02/22-rdf-syntax-ns#"
   xmlns:svg="http://www.w3.org/2000/svg"
   xmlns="http://www.w3.org/2000/svg"
   xmlns:sodipodi="http://sodipodi.sourceforge.net/DTD/sodipodi-0.dtd"
   xmlns:inkscape="http://www.inkscape.org/namespaces/inkscape"
   width="1417.3228"
   height="1417.3228"
   id="svg2"
   sodipodi:version="0.32"
   inkscape:version="0.48.2 r9819"
   sodipodi:docname="RoseSilhouette.svg"
   inkscape:output_extension="org.inkscape.output.svg.inkscape"
   version="1.0">
  <defs
     id="defs4">
    <inkscape:perspective
       sodipodi:type="inkscape:persp3d"
       inkscape:vp_x="0 : 526.18109 : 1"
       inkscape:vp_y="0 : 1000 : 0"
       inkscape:vp_z="744.09448 : 526.18109 : 1"
       inkscape:persp3d-origin="372.04724 : 350.78739 : 1"
       id="perspective10" />
  </defs>
  <sodipodi:namedview
     id="base"
     pagecolor="#ffffff"
     bordercolor="#666666"
     borderopacity="1.0"
     gridtolerance="10000"
     guidetolerance="10"
     objecttolerance="10"
     inkscape:pageopacity="0.0"
     inkscape:pageshadow="2"
     inkscape:zoom="0.35"
     inkscape:cx="898.89662"
     inkscape:cy="520"
     inkscape:document-units="in"
     inkscape:current-layer="layer1"
     showgrid="false"
     units="mm"
     inkscape:window-width="1264"
     inkscape:window-height="743"
     inkscape:window-x="0"
     inkscape:window-y="26"
     inkscape:window-maximized="0" />
  <metadata
     id="metadata7">
    <rdf:RDF>
      <cc:Work
         rdf:about="">
        <dc:format>image/svg+xml</dc:format>
        <dc:type
           rdf:resource="http://purl.org/dc/dcmitype/StillImage" />
        <dc:title></dc:title>
      </cc:Work>
    </rdf:RDF>
  </metadata>
  <g
     inkscape:label="Layer 1"
     inkscape:groupmode="layer"
     id="layer1"
     transform="translate(0,337.32288)">
    <path
       style="fill:#ff8080;fill-opacity:1"
       d="m 360.95343,768.22659 c 20.55333,-6.0809 61.55203,-20.5108 91.10828,-32.06671 63.86004,-24.96796 115.56161,-39.87067 138.32172,-39.87067 15.61762,0 16.82479,-1.12335 22.00004,-20.47298 6.36747,-23.80726 39.31374,-61.61548 89.39863,-102.59154 17.90356,-14.64751 31.76771,-27.416 30.80925,-28.37445 -0.95847,-0.95849 -9.30126,1.41549 -18.53944,5.27549 -9.23828,3.86 -17.62051,7.01815 -18.62716,7.01815 -1.00667,0 6.23147,-32.72425 16.08468,-72.72058 13.8986,-56.41737 17.91497,-81.83185 17.91497,-113.3617 0,-22.35255 -1.88388,-41.80526 -4.1864,-43.22838 -6.55511,-4.05121 -14.3663,24.07949 -14.3663,51.73779 0,29.16816 -5.52074,41.86743 -20.71189,47.64309 l -10.87142,4.13327 9.47444,19.14961 c 8.44003,17.05876 8.84048,21.26755 3.66772,38.54784 -54.63008,46.04983 -73.44442,117.54461 -116.77216,158.45294 -48.44245,44.84909 -95.30881,64.90943 -110.07597,47.11608 -4.28681,-5.16527 -8.12335,-3.59413 -21.0938,8.63867 -28.42096,26.80436 -97.91112,34.12978 -151.74072,15.99594 -15.52328,-5.22943 -28.91753,-8.81457 -29.76508,-7.96705 -0.84756,0.84752 5.85819,10.86595 14.90161,22.26303 9.04343,11.39709 19.42637,26.46176 23.07324,33.47706 7.96264,15.3172 12.02143,15.3987 59.99576,1.2051 z M 666.80894,317.62046 c 80.10305,-16.92066 155.25986,-70.76143 171.73538,-123.02765 8.38886,-26.61274 6.81715,-56.11992 -3.32316,-62.38697 -3.00631,-1.858 -26.64768,19.24129 -56.63808,50.54792 -43.97212,45.90208 -54.52096,54.51208 -72.34956,59.05185 -11.4795,2.92311 -28.69286,7.56882 -38.25193,10.32376 -12.79994,3.689 -22.22861,3.5564 -35.77844,-0.50321 -17.44133,-5.22553 -20.39703,-4.50978 -56.83064,13.76188 -54.73246,27.44867 -56.61747,32.81594 -17.22443,49.04413 29.58946,12.1896 61.6016,13.12882 108.66086,3.18829 z M 531.5456,272.13963 c 35.72206,-14.68778 62.61503,-37.38556 54.32562,-45.85098 -2.08074,-2.12497 -23.49819,-5.55275 -47.59416,-7.61725 -63.10525,-5.40671 -99.53862,-25.59606 -136.3702,-75.56891 -25.62322,-34.76537 -32.9114,-64.929594 -24.95185,-103.270544 4.47866,-21.57356 9.55011,-31.3904703 23.3411,-45.1814603 l 17.6193,-17.6192197 -17.01763,-11.18043 -17.01768,-11.18037 -17.76192,19.46736 c -36.70211,40.22621 -41.86452,51.42492 -43.92424,95.28448 -1.52611,32.498124 0.0448,45.875314 8.25369,70.285474 18.87132,56.11614 56.89339,108.4391 94.45568,129.98251 31.1379,17.85878 67.15335,18.68593 106.64229,2.44934 z m 152.15798,-41.79 c 30.22746,-7.67504 50.53766,-21.91337 87.09094,-61.05414 35.49956,-38.01263 59.01442,-79.927694 63.43639,-113.074944 3.55116,-26.61906 -9.55026,-66.79787 -36.459,-111.8114 -26.17269,-43.78213 -53.61026,-69.077516 -74.92746,-69.077516 -8.83492,0 -17.41021,2.17906 -19.05622,4.84241 -1.64602,2.66327 6.55583,16.44107 18.22647,30.617206 33.90003,41.17806 38.81748,81.8788397 14.93776,123.63584 -6.12524,10.71094 -13.7078,27.82315 -16.85002,38.02715 -6.95573,22.58768 -13.86892,31.250784 -13.86892,17.3795 0,-5.49219 -2.37019,-15.18774 -5.26703,-21.54559 -5.21633,-11.44852 -5.43479,-11.30025 -22.69049,15.39763 -28.7581,44.494324 -64.09831,65.549554 -111.14166,66.216574 -21.62491,0.30666 -29.80413,-1.84273 -42.40792,-11.14406 -8.58856,-6.33818 -28.70215,-16.29264 -44.69684,-22.12098 -18.085,-6.59013 -33.59306,-15.95905 -41.01327,-24.777394 -11.18051,-13.28731 -11.83184,-16.75445 -10.34316,-55.06032 0.87383,-22.48399 -0.25201,-40.8789503 -2.5018,-40.8776703 -9.0271,0.005 -35.15337,33.7474003 -38.03866,49.1270803 -4.74764,25.30728 0.4568,55.976494 12.57639,74.111444 13.52492,20.23793 57.1966,53.89138 94.45641,72.7885 20.94667,10.62346 36.21615,14.67904 61.53482,16.34366 30.61859,2.01299 36.30143,0.91941 62.61543,-12.04951 15.91734,-7.8449 39.8982,-25.00488 53.29092,-38.13316 13.3928,-13.12833 24.35051,-21.90907 24.35051,-19.51278 0,11.68785 -31.65712,45.66284 -58.48307,62.7651 -28.04832,17.88165 -29.3415,19.43961 -19.41043,23.38484 21.99608,8.73828 44.58066,10.69573 64.63991,5.60253 z M 876.51377,124.63373 C 913.15209,86.285336 907.70292,0.12319571 865.91835,-42.901054 c -16.21502,-16.69606 -23.26818,-19.08768 -41.69604,-14.13824 -9.42544,2.53157 -9.38509,2.91683 2.84695,27.16707 10.57447,20.9640397 12.91078,33.0835497 15.81013,82.01546 2.85268,48.144584 10.76987,87.564544 17.58655,87.564544 0.90527,0 8.12675,-6.78334 16.04783,-15.07405 z M 581.0327,135.37417 c 55.32524,-16.82915 102.00993,-71.096244 102.00993,-118.578104 0,-23.3818403 -16.57989,-61.06421 -34.95052,-79.43483 -9.7628,-9.76282 -15.23559,-11.00968 -48.32593,-11.00968 -32.48218,0 -37.3043,1.05144 -37.22417,8.1168 0.0544,4.79932 9.76388,13.80401 23.7556,22.03134 26.53384,15.60234 35.65885,26.95322 41.11474,51.1437197 10.38076,46.0268103 -32.93738,94.5540843 -84.67468,94.8571043 -14.26702,0.0835 -17.39315,1.76907 -17.39315,9.37822 0,21.78749 25.68194,32.62294 55.68818,23.49543 z m -83.51724,-34.5077 c 0,-0.954824 -3.13074,-10.609564 -6.95725,-21.454964 -9.54518,-27.05379 -8.72197,-49.08415 2.71719,-72.7141203 11.60626,-23.9753497 30.6194,-38.6021797 50.17829,-38.6021797 7.89698,0 14.35806,-1.91654 14.35806,-4.25889 0,-2.34231 1.07772,-7.06732 2.39493,-10.49987 3.60064,-9.38306 -25.81396,-23.63028 -40.94576,-19.83246 -16.61451,4.16999 -47.54196,36.32651 -62.04984,64.5155997 -9.81689,19.0745703 -11.38893,27.1461803 -9.27528,47.6251103 3.47063,33.6275 18.23423,56.957694 36.04344,56.957694 7.44495,0 13.53622,-0.78117 13.53622,-1.73592 z m 93.26559,-30.699464 c 18.60388,-19.55676 24.3421,-37.22917 21.86631,-67.3438403 -1.15987,-14.1078297 -4.30676,-19.7730297 -13.9885,-25.1823797 -6.87066,-3.83873 -13.63923,-5.83224 -15.0414,-4.43014 -1.40209,1.40209 -4.69308,13.85349 -7.31325,27.66978971 C 570.00555,34.093086 561.14663,42.170036 527.27974,45.577696 c -27.51624,2.76861 -34.19919,6.70452 -34.33147,20.21973 -0.10631,10.86284 29.56142,22.89042 56.46265,22.89042 21.66993,0 25.29595,-1.62337 41.37013,-18.52084 z m 129.36699,-41.77551 c 13.24954,-13.24954 13.02493,-63.53852 -0.40773,-91.2868 -18.09242,-37.373896 -67.13792,-70.002326 -121.69275,-80.958566 -65.79219,-13.21292 -170.16834,34.95189 -170.07893,78.483616 0.0142,6.92652 2.20364,20.43551 4.86537,30.01998 l 4.83948,17.4264 23.52641,-23.1583 c 12.93956,-12.73703 34.60772,-28.57983 48.15138,-35.20609 33.32633,-16.30508 83.69461,-23.969696 108.56029,-16.51974 36.82186,11.03208 77.01741,63.27882 82.17295,106.80982 3.07899,25.99725 6.21021,28.24301 20.06353,14.38968 z m -165.5778,-8.25699 c 4.40219,-4.86439 7.87969,-16.2219703 7.87969,-25.7349703 0,-16.2181797 -0.73785,-17.0279697 -15.5147,-17.0279697 -19.24842,0 -31.50165,12.57494 -32.46902,33.32133 -0.67266,14.42517 0.30498,15.46546 15.75355,16.76407 11.50818,0.96737 18.84487,-1.23887 24.35048,-7.32246 z"
       id="path3276"
       inkscape:connector-curvature="0"
       sodipodi:nodetypes="ssssscsssscsscsccsssssssssssssssssssssssscccsssssssssscssssssssssscssssssssssssssssssssssssssssssssssssssssscsssssssssscssssssssss"
       inkscape:export-filename="/home/leandro/projects/svn/professionalit/customers/rosamarialimpeza/logo02.png"
       inkscape:export-xdpi="90"
       inkscape:export-ydpi="90" />
    <flowRoot
       xml:space="preserve"
       id="flowRoot2986"
       style="font-size:40px;font-style:italic;font-weight:bold;line-height:125%;letter-spacing:0px;word-spacing:0px;fill:#4d4d4d;fill-opacity:1;stroke:none;font-family:Sans;-inkscape-font-specification:Sans Italic"
       transform="translate(-531.42857,274.28572)"
       inkscape:export-filename="/home/leandro/projects/svn/professionalit/customers/rosamarialimpeza/logo02.png"
       inkscape:export-xdpi="90"
       inkscape:export-ydpi="90"><flowRegion
         id="flowRegion2988"><rect
           id="rect2990"
           width="1200"
           height="308.57144"
           x="682.85712"
           y="517.14288"
           style="fill:#4d4d4d" /></flowRegion><flowPara
         id="flowPara2994"
         style="font-size:144px;font-style:normal;font-variant:normal;font-weight:bold;font-stretch:normal;text-align:start;line-height:125%;writing-mode:lr-tb;text-anchor:start;fill:#4d4d4d;font-family:Alako-Bold;-inkscape-font-specification:Alako-Bold Bold">Rosa Maria Limpeza</flowPara></flowRoot>  </g>
</svg>
