<?xml version="1.0" encoding="utf-8"?>
<!-- Generator: Adobe Illustrator 17.0.0, SVG Export Plug-In . SVG Version: 6.00 Build 0)  -->
<!DOCTYPE svg PUBLIC "-//W3C//DTD SVG 1.1//EN" "http://www.w3.org/Graphics/SVG/1.1/DTD/svg11.dtd">
<svg version="1.1" id="Capa_1" xmlns="http://www.w3.org/2000/svg" xmlns:xlink="http://www.w3.org/1999/xlink" x="0px" y="0px"
	 width="200px" height="200px" viewBox="0 0 200 200" enable-background="new 0 0 200 200" xml:space="preserve">
<g>
	<path d="M193.984,84.806c-0.364-14.23,6.896-30.25-1.337-43.41c-1.625-2.598-4.815-2.873-7.147-1.728
		c-0.357-0.202-0.676-0.43-1.116-0.571c-21.788-6.959-51.26,1.086-73.692,2.436c-32.73,1.969-65.858-0.278-98.641-1.279
		c-1.649-2.482-4.991-2.132-6.729-0.073c-3.819,0.573-4.591,6.714-0.513,7.658c5.118,35.595,3.207,71.163,4.112,107.026
		c0.062,2.473,1.752,5.273,4.374,5.745c27.176,4.899,54.186-0.435,81.419-2.204c32.217-2.093,64.86,3.479,97.222,2.433
		c3.322-0.108,5.884-2.638,5.974-5.974C198.541,131.399,194.585,108.234,193.984,84.806z M117.203,146.765
		c-22.642-1.281-44.804,1.904-67.321,3.733c-3.434,0.279-29.077,3.051-29.246-3.585c-0.342-13.474,0.021-26.967-0.104-40.444
		c-0.178-19.152-1.303-38.161-5.673-56.743c54.14,9.21,114.21,5.358,168.162-0.549c0.385-0.042,0.701-0.189,1.046-0.293
		c3.374,13.933-1.925,29.888-1.679,43.945c0.329,18.809,3.416,37.327,3.592,56.129C163.013,149.377,140.142,148.064,117.203,146.765
		z"/>
	<path d="M86.568,129.495c-5.406-9.015-12.395-16.569-19.822-23.948c-0.038-0.037-0.08-0.045-0.118-0.08
		c-0.3-0.455-0.686-0.86-1.138-1.207c4.705-2.776,8.086-7.506,8.692-13.801c0.491-5.092-0.662-9.909-2.886-14.475
		c-1.936-3.973-6.915-10.28-11.833-9.664c-1.055,0.132-1.851,0.643-2.405,1.314c-19.672,1.493-28.618,31.423-9.102,38.137
		c-7.647,6.72-12.285,15.884-16.521,25.203c-1.369,3.012,0.224,6.6,3.826,6.666c16.227,0.297,32.281,1.266,48.416-1.039
		C86.813,136.154,88.024,131.923,86.568,129.495z M57.341,72.055c1.556,2.213,4.213,3.593,5.824,5.908
		c1.856,2.665,2.768,5.888,2.962,9.098c0.445,7.363-4.409,11.587-11.487,11.43C38.06,98.123,46.007,75.908,57.341,72.055z"/>
	<path d="M157.804,68.174c-6.343-4.801-18.238-3.176-25.75-3.11c-11.236,0.099-22.792,0.734-33.741,3.416
		c-2.623,0.643-2.079,4.823,0.638,4.716c9.882-0.389,19.722-0.793,29.616-0.57c8.548,0.194,20.437,3.829,28.512,1.097
		C159.741,72.822,159.894,69.756,157.804,68.174z"/>
	<path d="M160.292,82.287c-3.352-2.494-8.845-1.59-12.803-1.705c-7.866-0.228-15.725-0.519-23.595-0.586
		c-5.513-0.047-21.651-2.397-25.092,3.98c-0.895,1.657,1.213,3.291,2.588,1.996c1.084-1.021,8.803,0.076,10.289,0.125
		c5.87,0.198,11.724,0.515,17.583,0.923c7.517,0.523,24.527,4.974,31.031,0.307C162.182,85.97,162.127,83.652,160.292,82.287z"/>
	<path d="M165.434,98.765c-3.552-2.719-10.244-1.434-14.457-1.501c-8.464-0.133-16.928-0.223-25.393-0.217
		c-2.965,0.002-22.267-1.758-22.195,4.319c0.026,2.142,3.289,2.676,3.791,0.513c-0.311,1.338,25.982,2.076,28.67,2.211
		c7.068,0.356,23.572,4.379,29.584-0.123C167.368,102.519,167.333,100.218,165.434,98.765z"/>
	<path d="M156.271,112.2c-8.055-0.826-17.251,1.189-25.476,1.265c-7.121,0.066-15.08-1.252-21.967,0.778
		c-1.143,0.337-1.101,1.914,0,2.27c6.912,2.232,14.753,2.124,21.967,2.688c8.161,0.638,19.463,2.572,27.079-1.08
		C161.02,116.613,159.085,112.489,156.271,112.2z"/>
	<path d="M165.188,125.717c-9.307-0.22-19.04,2.234-28.477,2.514c-9.189,0.273-18.428-0.249-27.569,0.431
		c-2.262,0.168-2.711,3.186-0.532,3.93c8.809,3.005,18.86,2.864,28.101,3.043c9.127,0.177,22.034,1.466,30.33-3.075
		C170.337,130.756,168.735,125.802,165.188,125.717z"/>
</g>
</svg>
